<?xml version="1.0" encoding="UTF-8"?>
<svg version="1.1" xmlns="http://www.w3.org/2000/svg" width="432" height="432">
<path d="M0 0 C142.56 0 285.12 0 432 0 C432 142.56 432 285.12 432 432 C289.44 432 146.88 432 0 432 C0 289.44 0 146.88 0 0 Z " fill="#FAF9F9" transform="translate(0,0)"/>
<path d="M0 0 C4.18760243 0.3870893 6.50269867 0.77328624 9.94921875 3.33984375 C13.42283411 8.07659197 14.26241682 12.50514238 14.25222778 18.30270386 C14.25635178 20.11991188 14.25635178 20.11991188 14.26055908 21.97383118 C14.25336853 23.28941513 14.24617798 24.60499908 14.23876953 25.96044922 C14.23820493 27.37018323 14.23852292 28.77991782 14.23965454 30.18965149 C14.24022717 34.00534207 14.22848751 37.82090631 14.21450663 41.63656759 C14.20198421 45.62840219 14.20082758 49.62023985 14.19845581 53.61209106 C14.19224548 61.16614493 14.17584072 68.72014075 14.15575683 76.27416909 C14.13338391 84.87631293 14.1224009 93.47845959 14.11236596 102.0806253 C14.09147409 119.771231 14.05630681 137.4617827 14.01171875 155.15234375 C14.63954758 155.14568192 15.2673764 155.13902008 15.91423035 155.13215637 C22.45163856 155.06575993 28.98895089 155.02052512 35.52661133 154.98754883 C37.96610403 154.97246721 40.40556965 154.95199906 42.8449707 154.92602539 C46.35244434 154.88961563 49.85955929 154.87261086 53.3671875 154.859375 C54.45694382 154.84389114 55.54670013 154.82840729 56.66947937 154.81245422 C66.09792748 154.81036109 66.09792748 154.81036109 70.01171875 158.15234375 C73.92833143 162.62847253 74.35593026 166.74570615 74.296875 172.5078125 C73.86369628 176.52510004 72.53245677 179.97808105 70.01171875 183.15234375 C66.59878615 185.34527965 63.77901694 185.39541294 59.77441406 185.37939453 C57.88290619 185.37916794 57.88290619 185.37916794 55.95318604 185.37893677 C54.58207033 185.36872431 53.21095624 185.35829233 51.83984375 185.34765625 C50.43308717 185.34392432 49.02632798 185.3410782 47.61956787 185.33908081 C43.92385636 185.33145851 40.228303 185.3118222 36.53265381 185.28967285 C32.75877013 185.26918411 28.98486081 185.26007263 25.2109375 185.25 C17.81112596 185.22857487 10.41144455 185.19445601 3.01171875 185.15234375 C3.01171875 185.81234375 3.01171875 186.47234375 3.01171875 187.15234375 C3.65109375 187.25546875 4.29046875 187.35859375 4.94921875 187.46484375 C9.07649201 188.39137448 13.01814824 189.76895004 17.01171875 191.15234375 C17.01171875 191.81234375 17.01171875 192.47234375 17.01171875 193.15234375 C17.99269531 193.11625 18.97367187 193.08015625 19.984375 193.04296875 C24.29992163 193.04730925 28.27040922 193.8861545 32.44921875 194.90234375 C33.19913086 195.0813623 33.94904297 195.26038086 34.72167969 195.44482422 C39.93289607 196.74592382 44.34178024 198.45814846 49.01171875 201.15234375 C49.89859375 201.46171875 50.78546875 201.77109375 51.69921875 202.08984375 C54.79715766 203.51322109 56.64621209 205.72618307 59.01171875 208.15234375 C60.33692378 208.83502513 61.66984057 209.50304785 63.01171875 210.15234375 C66.73258894 213.21616968 67.67801313 215.54876691 68.38671875 220.27734375 C68.64582031 221.85902344 68.64582031 221.85902344 68.91015625 223.47265625 C68.94367188 224.35695313 68.9771875 225.24125 69.01171875 226.15234375 C68.35171875 226.81234375 67.69171875 227.47234375 67.01171875 228.15234375 C66.02171875 228.15234375 65.03171875 228.15234375 64.01171875 228.15234375 C64.34171875 229.47234375 64.67171875 230.79234375 65.01171875 232.15234375 C63.69700307 231.87083288 62.38496108 231.57681036 61.07421875 231.27734375 C59.97787109 231.03371094 59.97787109 231.03371094 58.859375 230.78515625 C57.01171875 230.15234375 57.01171875 230.15234375 56.01171875 228.15234375 C48.11053519 223.5167325 38.64483927 221.26586334 29.57421875 220.77734375 C18.93261551 219.98455955 9.52651705 214.45987975 0.203125 209.66796875 C-3.53638892 207.89204292 -6.92934599 206.8829521 -10.98828125 206.15234375 C-10.98828125 205.49234375 -10.98828125 204.83234375 -10.98828125 204.15234375 C-21.80331333 203.02419855 -32.5762193 202.99867707 -43.43823242 203.02197266 C-46.44389792 203.02737632 -49.44941689 203.02197585 -52.45507812 203.015625 C-54.38151074 203.01628512 -56.30794327 203.0175649 -58.234375 203.01953125 C-59.5704203 203.0164949 -59.5704203 203.0164949 -60.93345642 203.01339722 C-65.41227609 203.03023438 -69.57267058 203.32052068 -73.98828125 204.15234375 C-75.71788446 204.28882304 -77.45020381 204.39449916 -79.18359375 204.46875 C-80.14168945 204.51080566 -81.09978516 204.55286133 -82.08691406 204.59619141 C-83.58496582 204.65492432 -83.58496582 204.65492432 -85.11328125 204.71484375 C-86.13776367 204.75657715 -87.16224609 204.79831055 -88.21777344 204.84130859 C-107.6532002 205.59737077 -107.6532002 205.59737077 -111.98828125 204.15234375 C-112.31828125 205.14234375 -112.64828125 206.13234375 -112.98828125 207.15234375 C-123.66879789 212.26041692 -135.83468113 213.76250577 -147.39111328 215.70263672 C-152.21539602 216.53797502 -157.00335498 217.5448098 -161.796875 218.5390625 C-164.04668232 218.97140002 -166.31323155 219.32065991 -168.5859375 219.609375 C-171.91477387 220.0077056 -171.91477387 220.0077056 -174.5625 221.20703125 C-177.45606776 222.33463736 -179.70799622 222.35186869 -182.80078125 222.27734375 C-183.77660156 222.25929688 -184.75242187 222.24125 -185.7578125 222.22265625 C-186.49386719 222.19945312 -187.22992188 222.17625 -187.98828125 222.15234375 C-187.98828125 222.81234375 -187.98828125 223.47234375 -187.98828125 224.15234375 C-190.29828125 224.48234375 -192.60828125 224.81234375 -194.98828125 225.15234375 C-194.98828125 225.81234375 -194.98828125 226.47234375 -194.98828125 227.15234375 C-197.6970746 228.50674043 -199.99761393 228.21735826 -202.98828125 228.15234375 C-202.98828125 228.81234375 -202.98828125 229.47234375 -202.98828125 230.15234375 C-206.0763782 231.91697058 -207.22140261 232.15234375 -210.98828125 232.15234375 C-210.98828125 232.81234375 -210.98828125 233.47234375 -210.98828125 234.15234375 C-212.27412109 234.44238281 -212.27412109 234.44238281 -213.5859375 234.73828125 C-220.71400282 236.34355039 -220.71400282 236.34355039 -227.73828125 238.33984375 C-231.87969526 239.37519725 -235.74464489 239.3255534 -239.98828125 239.15234375 C-240.31828125 240.80234375 -240.64828125 242.45234375 -240.98828125 244.15234375 C-241.67535156 244.27351562 -242.36242187 244.3946875 -243.0703125 244.51953125 C-243.97136719 244.68710937 -244.87242187 244.8546875 -245.80078125 245.02734375 C-247.14076172 245.27097656 -247.14076172 245.27097656 -248.5078125 245.51953125 C-251.21555971 246.06422824 -251.21555971 246.06422824 -253.98828125 248.15234375 C-256.67578125 248.27734375 -256.67578125 248.27734375 -258.98828125 248.15234375 C-258.98828125 249.14234375 -258.98828125 250.13234375 -258.98828125 251.15234375 C-262.62251334 253.47825229 -265.75916456 253.31500208 -269.98828125 253.15234375 C-269.98828125 252.49234375 -269.98828125 251.83234375 -269.98828125 251.15234375 C-271.30828125 251.15234375 -272.62828125 251.15234375 -273.98828125 251.15234375 C-273.98828125 249.83234375 -273.98828125 248.51234375 -273.98828125 247.15234375 C-276.95828125 246.49234375 -279.92828125 245.83234375 -282.98828125 245.15234375 C-282.98828125 244.16234375 -282.98828125 243.17234375 -282.98828125 242.15234375 C-283.97828125 241.82234375 -284.96828125 241.49234375 -285.98828125 241.15234375 C-286.11328125 233.52734375 -286.11328125 233.52734375 -284.98828125 230.15234375 C-283.99828125 230.15234375 -283.00828125 230.15234375 -281.98828125 230.15234375 C-282.31828125 228.50234375 -282.64828125 226.85234375 -282.98828125 225.15234375 C-282.34890625 224.90484375 -281.70953125 224.65734375 -281.05078125 224.40234375 C-279.27861122 223.67900904 -277.51709214 222.92513334 -275.79296875 222.09375 C-275.01179688 221.72121094 -274.230625 221.34867188 -273.42578125 220.96484375 C-272.31009766 220.41763672 -272.31009766 220.41763672 -271.171875 219.859375 C-268.66567722 219.04788699 -267.43529672 219.28118405 -264.98828125 220.15234375 C-264.89546875 218.97671875 -264.89546875 218.97671875 -264.80078125 217.77734375 C-263.98828125 215.15234375 -263.98828125 215.15234375 -261.98828125 213.90234375 C-258.01639875 212.90937313 -254.06278312 212.48966634 -249.98828125 212.15234375 C-249.98828125 211.49234375 -249.98828125 210.83234375 -249.98828125 210.15234375 C-246.35828125 209.82234375 -242.72828125 209.49234375 -238.98828125 209.15234375 C-238.98828125 208.49234375 -238.98828125 207.83234375 -238.98828125 207.15234375 C-232.91800767 204.99402425 -227.39457549 204.94382061 -220.98828125 205.15234375 C-220.98828125 204.16234375 -220.98828125 203.17234375 -220.98828125 202.15234375 C-216.76027699 200.03834162 -212.83606091 199.80943696 -208.1953125 199.59375 C-205.6071065 199.34661397 -205.6071065 199.34661397 -203.98828125 196.15234375 C-199.51964708 193.34645718 -196.2270303 192.75696646 -190.98828125 193.15234375 C-189.99828125 193.48234375 -189.00828125 193.81234375 -187.98828125 194.15234375 C-187.65828125 193.16234375 -187.32828125 192.17234375 -186.98828125 191.15234375 C-184.34828125 190.82234375 -181.70828125 190.49234375 -178.98828125 190.15234375 C-178.98828125 189.49234375 -178.98828125 188.83234375 -178.98828125 188.15234375 C-175.02828125 187.82234375 -171.06828125 187.49234375 -166.98828125 187.15234375 C-166.98828125 186.49234375 -166.98828125 185.83234375 -166.98828125 185.15234375 C-166.13363281 185.01957031 -165.27898437 184.88679687 -164.3984375 184.75 C-163.29371094 184.57339844 -162.18898438 184.39679688 -161.05078125 184.21484375 C-159.94863281 184.04082031 -158.84648437 183.86679688 -157.7109375 183.6875 C-155.08401196 183.43389239 -155.08401196 183.43389239 -153.98828125 182.15234375 C-151.12560558 182.07909207 -148.28756225 182.0599617 -145.42578125 182.08984375 C-144.61947266 182.09435547 -143.81316406 182.09886719 -142.98242188 182.10351562 C-140.98434369 182.11533857 -138.98630342 182.13327461 -136.98828125 182.15234375 C-136.98828125 181.49234375 -136.98828125 180.83234375 -136.98828125 180.15234375 C-130.74518198 177.37763296 -125.790315 176.77600172 -118.98828125 177.15234375 C-119.31828125 176.16234375 -119.64828125 175.17234375 -119.98828125 174.15234375 C-120.08645639 172.02255544 -120.12329946 169.88977917 -120.12872314 167.75773621 C-120.13169427 167.10603795 -120.13466539 166.45433969 -120.13772655 165.782893 C-120.14641105 163.59507652 -120.14792158 161.40731478 -120.14941406 159.21948242 C-120.15404242 157.6524392 -120.1590671 156.0853971 -120.16445923 154.51835632 C-120.17758365 150.25793683 -120.18402828 145.9975331 -120.18846989 141.73709655 C-120.19140057 139.07546956 -120.19550538 136.41384688 -120.19997406 133.75222206 C-120.21364916 125.42495468 -120.22331573 117.09769714 -120.22717595 108.7704193 C-120.23165675 99.15717129 -120.24920558 89.54406547 -120.27817655 79.9308607 C-120.29979166 72.50061635 -120.30988014 65.070412 -120.31121707 57.64013654 C-120.31226523 53.20216076 -120.31817534 48.76431864 -120.33603668 44.32637596 C-120.35251441 40.15095978 -120.35467437 35.97577776 -120.34589767 31.80034065 C-120.34512714 30.26930998 -120.34947228 28.73826673 -120.35935593 27.20726776 C-120.37207583 25.11386769 -120.36619928 23.02129694 -120.35577393 20.92790222 C-120.35724049 19.75743442 -120.35870705 18.58696661 -120.36021805 17.38103008 C-119.7874821 12.40925866 -118.12680005 9.17978754 -114.42578125 5.83984375 C-110.43724703 3.07855083 -108.18855203 3.01796437 -103.32299805 2.99121094 C-102.63823395 2.98624603 -101.95346985 2.98128113 -101.24795532 2.97616577 C-98.97779339 2.96153605 -96.70770137 2.95474027 -94.4375 2.94921875 C-92.86049904 2.94346725 -91.28349811 2.93770951 -89.70649719 2.9319458 C-86.39685744 2.92143302 -83.087242 2.91559241 -79.77758789 2.91210938 C-75.54060601 2.90662894 -71.3039462 2.88261198 -67.06706524 2.85413742 C-63.80793832 2.83549382 -60.54888864 2.83030449 -57.28971291 2.8287735 C-55.7280279 2.8257495 -54.16634417 2.81772947 -52.60471153 2.80458832 C-50.41680967 2.78749389 -48.22968998 2.78941607 -46.04174805 2.79589844 C-44.79757614 2.79225281 -43.55340424 2.78860718 -42.27153015 2.78485107 C-37.87157023 3.27733675 -35.29435121 4.84341586 -32.203125 7.94140625 C-29.67190284 12.5480678 -30.41399624 18.07213019 -30.98828125 23.15234375 C-32.15878705 26.39974703 -33.81318638 28.40831252 -36.77349854 30.28268433 C-39.53236395 31.36598396 -41.7113044 31.39250736 -44.67480469 31.37939453 C-45.81568542 31.37924347 -46.95656616 31.37909241 -48.13201904 31.37893677 C-49.35817932 31.3686142 -50.5843396 31.35829163 -51.84765625 31.34765625 C-53.10717102 31.34482635 -54.36668579 31.34199646 -55.66436768 31.33908081 C-59.00502027 31.32978496 -62.34539794 31.31182958 -65.68597412 31.28967285 C-69.09791653 31.26917583 -72.50988824 31.25996113 -75.921875 31.25 C-82.61083161 31.22964408 -89.29930764 31.19049379 -95.98828125 31.15234375 C-95.98828125 46.00234375 -95.98828125 60.85234375 -95.98828125 76.15234375 C-92.14816406 76.09433594 -88.30804688 76.03632813 -84.3515625 75.9765625 C-80.63161281 75.93756688 -76.91168589 75.90720776 -73.19165039 75.87768555 C-70.60658575 75.85254374 -68.02159218 75.8184256 -65.43676758 75.77514648 C-61.72068751 75.71448453 -58.00554739 75.68612956 -54.2890625 75.6640625 C-52.55599602 75.62535286 -52.55599602 75.62535286 -50.78791809 75.58586121 C-41.84780201 75.58273717 -41.84780201 75.58273717 -38.78198242 78.55786133 C-36.0586204 82.49704306 -35.8034149 84.67209234 -35.73828125 89.46484375 C-35.69960938 91.16060547 -35.69960938 91.16060547 -35.66015625 92.890625 C-36.02256314 96.49312207 -36.81737152 98.28654002 -38.98828125 101.15234375 C-42.33445017 103.38312303 -43.38422084 103.39758412 -47.28588867 103.37939453 C-48.36678268 103.37924347 -49.4476767 103.37909241 -50.56132507 103.37893677 C-51.7270253 103.3686142 -52.89272552 103.35829163 -54.09375 103.34765625 C-55.88526237 103.34341141 -55.88526237 103.34341141 -57.71296692 103.33908081 C-61.53400622 103.32787052 -65.35481259 103.30276412 -69.17578125 103.27734375 C-71.76366849 103.26731506 -74.35155941 103.25818902 -76.93945312 103.25 C-83.28922481 103.22962858 -89.63849176 103.19048062 -95.98828125 103.15234375 C-95.98828125 120.64234375 -95.98828125 138.13234375 -95.98828125 156.15234375 C-91.78722656 156.11753906 -87.58617187 156.08273438 -83.2578125 156.046875 C-79.90196246 156.0275736 -76.54612816 156.01130824 -73.19025421 155.9970932 C-69.65105498 155.98127022 -66.11207229 155.96013572 -62.57299805 155.92602539 C-58.50958188 155.88710772 -54.44639404 155.87261828 -50.3828125 155.859375 C-49.11806595 155.84389114 -47.8533194 155.82840729 -46.55024719 155.81245422 C-45.36940048 155.81222763 -44.18855377 155.81200104 -42.97192383 155.81176758 C-41.93489822 155.80510574 -40.89787262 155.79844391 -39.829422 155.7915802 C-35.64233867 156.32324941 -32.99416737 158.00275962 -30.23828125 161.15234375 C-27.5304287 165.48490783 -27.90743192 169.22053454 -27.98828125 174.15234375 C-27.22515625 174.21421875 -26.46203125 174.27609375 -25.67578125 174.33984375 C-21.2867056 175.30692821 -17.60963464 177.05185976 -13.57421875 178.99609375 C-11.34584932 179.99246437 -9.34987416 180.60287353 -6.98828125 181.15234375 C-7.20052432 180.60599053 -7.41276739 180.05963732 -7.63144207 179.49672794 C-10.34648684 171.68348315 -10.40732972 164.21760905 -10.3605957 156.02319336 C-10.36302822 154.51909636 -10.36675199 153.01500099 -10.37165833 151.51091003 C-10.38100719 147.45308847 -10.37169324 143.39551065 -10.3583262 139.33770823 C-10.34694788 135.07650295 -10.35112406 130.81530854 -10.35307312 126.55409241 C-10.35395399 119.40149998 -10.34291831 112.2490027 -10.32446289 105.09643555 C-10.30329037 96.84392188 -10.29978838 88.59154742 -10.30602485 80.33901209 C-10.31173221 72.37695041 -10.30605722 64.41493742 -10.2948513 56.45288277 C-10.29022429 53.07472388 -10.2893232 49.69659495 -10.29143715 46.31843376 C-10.29332979 42.33663217 -10.28514163 38.35497096 -10.26937675 34.37320137 C-10.26515811 32.91761481 -10.26426693 31.46201393 -10.26706696 30.00642395 C-10.29930709 10.23834561 -10.29930709 10.23834561 -3.98828125 2.15234375 C-1.98828125 0.15234375 -1.98828125 0.15234375 0 0 Z " fill="#E90404" transform="translate(308.98828125,60.84765625)"/>
<path d="M0 0 C6.62213081 5.64695401 11.62085983 12.05606247 15.28125 19.9453125 C15.6009375 20.60660156 15.920625 21.26789063 16.25 21.94921875 C18.30584417 26.96509781 18.55690841 31.88437629 18.59375 37.2578125 C18.59930908 37.95205322 18.60486816 38.64629395 18.6105957 39.36157227 C18.55831014 43.0398842 18.29791019 45.81989092 16.28125 48.9453125 C15.62125 48.9453125 14.96125 48.9453125 14.28125 48.9453125 C13.95125 49.9353125 13.62125 50.9253125 13.28125 51.9453125 C10.99398777 53.08894362 9.45272573 53.21033182 6.90625 53.3203125 C6.13539063 53.36929688 5.36453125 53.41828125 4.5703125 53.46875 C1.09258777 52.67350237 0.22174577 50.88698039 -1.71875 47.9453125 C-3.14907876 45.3436964 -4.44428413 42.68867136 -5.71875 40.0078125 C-10.28022942 30.2145889 -10.28022942 30.2145889 -17.78125 22.6328125 C-18.45285156 22.14167969 -19.12445313 21.65054688 -19.81640625 21.14453125 C-25.15953462 17.77627579 -31.64924567 18.44072188 -37.71875 18.9453125 C-45.08662157 20.97698473 -51.82720892 26.95963118 -56.15625 33.1328125 C-57.46858766 35.49502028 -58.3112146 37.29633239 -58.71875 39.9453125 C-59.37875 39.9453125 -60.03875 39.9453125 -60.71875 39.9453125 C-61.39705066 42.9428093 -62.06222544 45.94297067 -62.71875 48.9453125 C-62.86602539 49.61868652 -63.01330078 50.29206055 -63.16503906 50.98583984 C-67.20251642 70.31222241 -67.01688606 90.67264387 -64.46875 110.1953125 C-64.35966309 111.04456299 -64.25057617 111.89381348 -64.13818359 112.76879883 C-62.09153874 126.18464976 -55.83599967 137.32003569 -45.02734375 145.5703125 C-38.02803912 149.73910307 -30.63585461 149.75559186 -22.71875 148.9453125 C-18.39634592 147.77313512 -14.60333329 146.16577154 -10.71875 143.9453125 C-9.87908691 143.54836182 -9.03942383 143.15141113 -8.17431641 142.74243164 C-5.12176525 141.05649585 -3.00895048 139.58889624 -0.71875 136.9453125 C0.65024603 131.7858528 0.54929441 126.79120716 0.40625 121.5078125 C0.40430561 120.09439998 0.40686882 118.68097368 0.4140625 117.26757812 C0.42184499 113.82511653 0.36836098 110.38683205 0.28125 106.9453125 C-0.31824463 106.95578613 -0.91773926 106.96625977 -1.53540039 106.97705078 C-4.2839733 107.01894087 -7.03247874 107.04474253 -9.78125 107.0703125 C-10.72419922 107.08707031 -11.66714844 107.10382813 -12.63867188 107.12109375 C-19.14037942 107.16640182 -24.60767127 107.10030362 -30.12109375 103.28125 C-32.37159495 99.99078615 -32.28519882 97.52703384 -32.28125 93.5703125 C-32.30316406 92.28382813 -32.32507813 90.99734375 -32.34765625 89.671875 C-31.61600877 85.33652285 -30.18957064 82.60707958 -26.71875 79.9453125 C-23.77228682 79.10122801 -20.958873 79.14928879 -17.91015625 79.21875 C-17.06581528 79.21775299 -16.2214743 79.21675598 -15.35154724 79.21572876 C-13.57045046 79.22039791 -11.78933901 79.23978372 -10.00854492 79.27294922 C-7.29289784 79.32011022 -4.58118664 79.31407182 -1.86523438 79.30078125 C-0.13018508 79.31193771 1.60484776 79.32615933 3.33984375 79.34375 C4.14626816 79.34192719 4.95269257 79.34010437 5.78355408 79.33822632 C11.0105743 79.46861855 14.31785316 80.23259582 18.28125 83.9453125 C21.81047233 90.58267799 21.74868106 97.00404474 21.75 104.40625 C21.76142029 106.18486923 21.76142029 106.18486923 21.77307129 107.99942017 C21.78384057 110.49894107 21.78673837 112.99850685 21.78222656 115.49804688 C21.78125479 119.3015523 21.82290687 123.10303556 21.8671875 126.90625 C21.87239561 129.34374583 21.87508268 131.78124861 21.875 134.21875 C21.89139526 135.34509857 21.90779053 136.47144714 21.92468262 137.63192749 C21.84909039 146.36111213 19.62643991 152.71352151 14.203125 159.57421875 C0.16594936 172.07134454 -16.20847841 178.69391202 -35.06640625 178.3046875 C-40.67401952 177.75292234 -45.53431247 176.07266529 -50.71875 173.9453125 C-51.915 173.5534375 -53.11125 173.1615625 -54.34375 172.7578125 C-71.44997836 163.57113431 -80.39460481 144.96032486 -86.09375 127.2578125 C-86.33230713 126.52320801 -86.57086426 125.78860352 -86.81665039 125.03173828 C-90.66185643 112.37743898 -91.09163112 99.69977172 -91.08935547 86.58178711 C-91.09371577 83.77981129 -91.13011794 80.97943199 -91.16796875 78.17773438 C-91.24201643 66.25251354 -89.87486258 55.43692289 -86.71875 43.9453125 C-86.52405121 43.21853806 -86.32935242 42.49176361 -86.12875366 41.7429657 C-83.36254578 31.463143 -79.36823776 22.98685671 -73.71875 13.9453125 C-73.23535156 13.08550781 -72.75195312 12.22570312 -72.25390625 11.33984375 C-70.52118837 8.63715657 -68.57087555 6.56746608 -66.28125 4.3203125 C-65.51941406 3.56492187 -64.75757812 2.80953125 -63.97265625 2.03125 C-46.37939632 -14.25090043 -18.5851402 -13.93885515 0 0 Z " fill="#070605" transform="translate(144.71875,71.0546875)"/>
<path d="M0 0 C0.6847641 -0.0049649 1.3695282 -0.00992981 2.07504272 -0.01504517 C4.34520466 -0.02967489 6.61529668 -0.03647066 8.88549805 -0.04199219 C10.46249901 -0.04774369 12.03949994 -0.05350142 13.61650085 -0.05926514 C16.92614061 -0.06977792 20.23575605 -0.07561853 23.54541016 -0.07910156 C27.78239203 -0.08458199 32.01905185 -0.10859896 36.25593281 -0.13707352 C39.51505972 -0.15571712 42.77410941 -0.16090644 46.03328514 -0.16243744 C47.59497015 -0.16546143 49.15665387 -0.17348147 50.71828651 -0.18662262 C52.90618838 -0.20371705 55.09330807 -0.20179487 57.28125 -0.1953125 C58.52542191 -0.19895813 59.76959381 -0.20260376 61.0514679 -0.20635986 C65.45142781 0.28612581 68.02864683 1.85220493 71.11987305 4.95019531 C73.65109521 9.55685686 72.90900181 15.08091925 72.3347168 20.16113281 C71.16421099 23.4085361 69.50981167 25.41710158 66.54949951 27.29147339 C63.7906341 28.37477302 61.61169365 28.40129643 58.64819336 28.38818359 C57.50731262 28.38803253 56.36643188 28.38788147 55.190979 28.38772583 C53.96481873 28.37740326 52.73865845 28.36708069 51.4753418 28.35644531 C50.21582703 28.35361542 48.95631226 28.35078552 47.65863037 28.34786987 C44.31797778 28.33857403 40.97760011 28.32061864 37.63702393 28.29846191 C34.22508151 28.27796489 30.81310981 28.26875019 27.40112305 28.25878906 C20.71216643 28.23843314 14.02369041 28.19928285 7.3347168 28.16113281 C7.3347168 43.01113281 7.3347168 57.86113281 7.3347168 73.16113281 C11.17483398 73.103125 15.01495117 73.04511719 18.97143555 72.98535156 C22.69138524 72.94635594 26.41131215 72.91599683 30.13134766 72.88647461 C32.7164123 72.8613328 35.30140587 72.82721466 37.88623047 72.78393555 C41.60231053 72.72327359 45.31745065 72.69491862 49.03393555 72.67285156 C50.76700203 72.63414192 50.76700203 72.63414192 52.53507996 72.59465027 C61.47519604 72.59152623 61.47519604 72.59152623 64.54101562 75.56665039 C67.26437764 79.50583212 67.51958314 81.6808814 67.5847168 86.47363281 C67.61049805 87.60414063 67.6362793 88.73464844 67.6628418 89.89941406 C67.30043491 93.50191113 66.50562652 95.29532908 64.3347168 98.16113281 C60.98854788 100.39191209 59.9387772 100.40637319 56.03710938 100.38818359 C54.95621536 100.38803253 53.87532135 100.38788147 52.76167297 100.38772583 C51.59597275 100.37740326 50.43027252 100.36708069 49.22924805 100.35644531 C47.43773567 100.35220047 47.43773567 100.35220047 45.61003113 100.34786987 C41.78899183 100.33665958 37.96818546 100.31155318 34.1472168 100.28613281 C31.55932955 100.27610412 28.97143864 100.26697808 26.38354492 100.25878906 C20.03377323 100.23841764 13.68450628 100.19926969 7.3347168 100.16113281 C7.3347168 117.65113281 7.3347168 135.14113281 7.3347168 153.16113281 C11.53577148 153.12632812 15.73682617 153.09152344 20.06518555 153.05566406 C23.42103559 153.03636267 26.77686988 153.0200973 30.13274384 153.00588226 C33.67194307 152.99005929 37.21092575 152.96892478 40.75 152.93481445 C44.81341616 152.89589678 48.876604 152.88140734 52.94018555 152.86816406 C54.2049321 152.85268021 55.46967865 152.83719635 56.77275085 152.82124329 C57.95359756 152.82101669 59.13444427 152.8207901 60.35107422 152.82055664 C61.38809982 152.81389481 62.42512543 152.80723297 63.49357605 152.80036926 C67.74381536 153.34005792 70.34839308 155.1748091 73.3347168 158.16113281 C74.54807873 163.13591672 74.43639905 168.07702036 74.3347168 173.16113281 C72.83482719 173.18879471 71.33477811 173.20781891 69.8347168 173.22363281 C68.9994043 173.23523438 68.1640918 173.24683594 67.3034668 173.25878906 C64.3347168 173.16113281 64.3347168 173.16113281 60.86621094 172.66333008 C55.5353813 171.98233488 50.22902741 172.01777726 44.86206055 172.02832031 C43.23923912 172.02688522 43.23923912 172.02688522 41.58363342 172.02542114 C39.30689434 172.02474352 37.03015329 172.02656854 34.75341797 172.03076172 C31.27982222 172.03612108 27.80635546 172.03079979 24.33276367 172.02441406 C22.11336235 172.02507482 19.8939611 172.02635592 17.67456055 172.02832031 C16.64209702 172.02629608 15.60963348 172.02427185 14.54588318 172.02218628 C10.37081512 172.03568854 6.31779767 172.07880762 2.18847656 172.73193359 C1.24673584 172.87356934 0.30499512 173.01520508 -0.6652832 173.16113281 C-0.9952832 172.83113281 -1.3252832 172.50113281 -1.6652832 172.16113281 C-6.19170545 172.01025207 -10.24828833 172.05688409 -14.6652832 173.16113281 C-14.6652832 172.50113281 -14.6652832 171.84113281 -14.6652832 171.16113281 C-15.3252832 171.16113281 -15.9852832 171.16113281 -16.6652832 171.16113281 C-16.73536674 150.40337258 -16.78826819 129.64563187 -16.82071972 108.88777733 C-16.83618808 99.24952616 -16.85727702 89.61134851 -16.89160156 79.97314453 C-16.92150484 71.57240806 -16.94085844 63.17172483 -16.94754869 54.77093661 C-16.95145937 50.32284429 -16.96064938 45.8749043 -16.98247337 41.42686081 C-17.00285319 37.23918715 -17.00911398 33.0517284 -17.00460625 28.86400986 C-17.00543078 27.32813855 -17.0113876 25.79225997 -17.02289963 24.25643158 C-17.03786764 22.15631806 -17.03422179 20.0570116 -17.02604675 17.95687866 C-17.02881213 16.7825144 -17.03157751 15.60815014 -17.03442669 14.39819908 C-16.46677824 9.42041754 -14.8077146 6.19210749 -11.1027832 2.84863281 C-7.11424898 0.08733989 -4.86555398 0.02675343 0 0 Z " fill="#070605" transform="translate(205.665283203125,63.8388671875)"/>
<path d="M0 0 C44.88 0 89.76 0 136 0 C136 8.58 136 17.16 136 26 C109.27 26 82.54 26 55 26 C55 33.26 55 40.52 55 48 C46.42 48 37.84 48 29 48 C29 70.44 29 92.88 29 116 C19.43 116 9.86 116 0 116 C0 77.72 0 39.44 0 0 Z " fill="#000000" transform="translate(0,0)"/>
<path d="M0 0 C4.18760243 0.3870893 6.50269867 0.77328624 9.94921875 3.33984375 C13.42283411 8.07659197 14.26241682 12.50514238 14.25222778 18.30270386 C14.25497711 19.51417587 14.25772644 20.72564789 14.26055908 21.97383118 C14.25336853 23.28941513 14.24617798 24.60499908 14.23876953 25.96044922 C14.23820493 27.37018323 14.23852292 28.77991782 14.23965454 30.18965149 C14.24022717 34.00534207 14.22848751 37.82090631 14.21450663 41.63656759 C14.20198421 45.62840219 14.20082758 49.62023985 14.19845581 53.61209106 C14.19224548 61.16614493 14.17584072 68.72014075 14.15575683 76.27416909 C14.13338391 84.87631293 14.1224009 93.47845959 14.11236596 102.0806253 C14.09147409 119.771231 14.05630681 137.4617827 14.01171875 155.15234375 C14.63954758 155.14568192 15.2673764 155.13902008 15.91423035 155.13215637 C22.45163856 155.06575993 28.98895089 155.02052512 35.52661133 154.98754883 C37.96610403 154.97246721 40.40556965 154.95199906 42.8449707 154.92602539 C46.35244434 154.88961563 49.85955929 154.87261086 53.3671875 154.859375 C54.45694382 154.84389114 55.54670013 154.82840729 56.66947937 154.81245422 C66.09792748 154.81036109 66.09792748 154.81036109 70.01171875 158.15234375 C73.92833143 162.62847253 74.35593026 166.74570615 74.296875 172.5078125 C73.86369628 176.52510004 72.53245677 179.97808105 70.01171875 183.15234375 C66.61075209 185.33004668 63.78233406 185.41040042 59.79370117 185.42700195 C57.90605293 185.44129997 57.90605293 185.44129997 55.98027039 185.45588684 C54.60924247 185.45562534 53.23821455 185.45468797 51.8671875 185.453125 C50.45477676 185.4570146 49.04236718 185.46134982 47.62995911 185.46611023 C44.67017832 185.47356674 41.71051681 185.47328609 38.75073242 185.46801758 C34.97132428 185.46223448 31.19240806 185.47912808 27.41308117 185.50236225 C24.49527668 185.51715058 21.57758913 185.51796422 18.6597538 185.51485252 C17.26719504 185.51536354 15.87462935 185.52055976 14.48210716 185.53066444 C-1.38472154 185.63164278 -1.38472154 185.63164278 -6.80078125 180.40234375 C-9.48570971 175.31511087 -10.23841046 170.21272956 -10.24224854 164.52468872 C-10.24788818 163.23229279 -10.25352783 161.93989685 -10.25933838 160.6083374 C-10.25545051 159.19348088 -10.25135422 157.77862491 -10.24707031 156.36376953 C-10.24978312 154.86011587 -10.25334567 153.35646355 -10.25769043 151.85281372 C-10.26678386 147.78247248 -10.26328236 143.71223299 -10.25693226 139.64189005 C-10.25185461 135.37265666 -10.25656879 131.10343175 -10.25970459 126.834198 C-10.26333988 119.6637008 -10.25855743 112.49324484 -10.24902344 105.32275391 C-10.23814803 97.04815489 -10.24165958 88.7736545 -10.25267625 80.49905789 C-10.2617715 73.38120436 -10.26302322 66.26338042 -10.25779891 59.14552295 C-10.25469043 54.90037539 -10.25423873 50.65527408 -10.26087189 46.41012955 C-10.26667703 42.41606693 -10.26259083 38.42213058 -10.25108337 34.42808151 C-10.24845331 32.96765604 -10.2491734 31.50721982 -10.2536087 30.04679871 C-10.30815881 10.24968687 -10.30815881 10.24968687 -3.98828125 2.15234375 C-1.98828125 0.15234375 -1.98828125 0.15234375 0 0 Z " fill="#080706" transform="translate(308.98828125,60.84765625)"/>
<path d="M0 0 C4.48611475 2.62078637 6.52638553 6.31521911 8.06640625 11.25390625 C8.63603109 14.12255745 8.8110973 16.95712795 9 19.875 C9.2564955 23.82777892 9.70224434 27.5617371 10.5 31.4375 C10.5 32.4275 10.5 33.4175 10.5 34.4375 C7.53 34.9325 7.53 34.9325 4.5 35.4375 C4.5 36.7575 4.5 38.0775 4.5 39.4375 C3.82324219 39.27378906 3.14648438 39.11007812 2.44921875 38.94140625 C-0.96769942 38.35758844 -4.22212837 38.40013741 -7.6875 38.375 C-14.42839345 38.10691503 -18.48878178 36.16841392 -23.546875 31.73828125 C-27.73376531 26.80612446 -28.91631613 22.67465779 -28.875 16.25 C-28.88273437 15.03957031 -28.89046875 13.82914062 -28.8984375 12.58203125 C-28.47198397 9.21639307 -28.08044848 8.46215958 -25.5 6.4375 C-25.2525 5.798125 -25.005 5.15875 -24.75 4.5 C-19.79238552 -3.68006389 -7.87062682 -3.39834541 0 0 Z " fill="#090770" transform="translate(408.5,280.5625)"/>
<path d="M0 0 C8.58 0 17.16 0 26 0 C26 7.26 26 14.52 26 22 C17.42 22 8.84 22 0 22 C0 14.74 0 7.48 0 0 Z " fill="#F30201" transform="translate(29,26)"/>
<path d="M0 0 C1.40765625 0.00193359 1.40765625 0.00193359 2.84375 0.00390625 C5.97179615 0.51451378 7.22827765 1.24695322 9.5 3.4375 C9.95410156 5.79760742 9.95410156 5.79760742 9.890625 8.54296875 C9.87128906 10.01733398 9.87128906 10.01733398 9.8515625 11.52148438 C9.81804687 12.54564453 9.78453125 13.56980469 9.75 14.625 C9.73195312 15.66076172 9.71390625 16.69652344 9.6953125 17.76367188 C9.64814437 20.32254284 9.58234057 22.87955842 9.5 25.4375 C8.84 25.4375 8.18 25.4375 7.5 25.4375 C7.5 26.0975 7.5 26.7575 7.5 27.4375 C4.80460046 28.78519977 2.56988169 28.71772191 -0.4375 28.8125 C-2.02884766 28.88597656 -2.02884766 28.88597656 -3.65234375 28.9609375 C-6.5 28.4375 -6.5 28.4375 -8.3515625 26.51171875 C-9.94510827 22.24600269 -9.97535258 18.39322108 -9.9375 13.875 C-9.95748047 13.02486328 -9.97746094 12.17472656 -9.99804688 11.29882812 C-9.99502796 7.44971018 -9.96313224 5.14240662 -7.81640625 1.875 C-4.99629078 0.12491148 -3.30386847 -0.06807421 0 0 Z " fill="#1B1918" transform="translate(134.5,342.5625)"/>
<path d="M0 0 C0.95003906 0.00128906 1.90007812 0.00257813 2.87890625 0.00390625 C5.89296093 0.51468498 6.60623408 1.04221334 8.4375 3.4375 C8.82568359 5.75 8.82568359 5.75 8.8359375 8.4375 C8.84173828 9.8915625 8.84173828 9.8915625 8.84765625 11.375 C8.83605469 12.385625 8.82445312 13.39625 8.8125 14.4375 C8.82410156 15.448125 8.83570313 16.45875 8.84765625 17.5 C8.84378906 18.469375 8.83992188 19.43875 8.8359375 20.4375 C8.83086182 21.7678125 8.83086182 21.7678125 8.82568359 23.125 C8.36113737 25.89240997 7.66777405 26.78069645 5.4375 28.4375 C2.87890625 28.87109375 2.87890625 28.87109375 0 28.875 C-0.94746094 28.89433594 -1.89492187 28.91367187 -2.87109375 28.93359375 C-5.5625 28.4375 -5.5625 28.4375 -7.87890625 27.03515625 C-10.49328312 23.00137291 -10.14312424 19.14058048 -10.0625 14.4375 C-10.07796875 13.53515625 -10.0934375 12.6328125 -10.109375 11.703125 C-10.0859026 7.73628979 -10.06717927 5.21618148 -7.87890625 1.83984375 C-5.04612393 0.12488784 -3.29786132 -0.06730329 0 0 Z " fill="#E5E4E4" transform="translate(177.5625,342.5625)"/>
<path d="M0 0 C0.89203125 0.11085938 1.7840625 0.22171875 2.703125 0.3359375 C3.37859375 0.43132812 4.0540625 0.52671875 4.75 0.625 C4.83131463 2.06155854 4.88933559 3.4994483 4.9375 4.9375 C4.98970703 6.13826172 4.98970703 6.13826172 5.04296875 7.36328125 C4.75 9.625 4.75 9.625 3.36328125 11.41796875 C1.75 12.625 1.75 12.625 -0.25 12.625 C1.55412643 15.88960973 2.58394693 17.51429795 5.75 19.625 C5.75 17.975 5.75 16.325 5.75 14.625 C6.74 14.625 7.73 14.625 8.75 14.625 C8.72679687 15.31207031 8.70359375 15.99914062 8.6796875 16.70703125 C8.66164063 17.60808594 8.64359375 18.50914062 8.625 19.4375 C8.60179687 20.33082031 8.57859375 21.22414063 8.5546875 22.14453125 C8.56714173 24.87902714 8.56714173 24.87902714 10.75 27.625 C7.83277452 27.70603404 4.91780484 27.76551081 2 27.8125 C1.175 27.83763672 0.35 27.86277344 -0.5 27.88867188 C-4.0427522 27.93152775 -6.57467424 27.94973551 -9.80078125 26.3984375 C-11.63490332 24.15398624 -11.7585603 22.93807335 -11.6875 20.0625 C-11.68621094 19.27746094 -11.68492187 18.49242187 -11.68359375 17.68359375 C-11.25 15.625 -11.25 15.625 -8.25 13.625 C-8.415 13.13 -8.58 12.635 -8.75 12.125 C-9.45688818 8.59055911 -9.31005155 5.22809299 -9.25 1.625 C-5.9353333 -0.40407167 -3.8184021 -0.50242133 0 0 Z " fill="#131211" transform="translate(259.25,343.375)"/>
<path d="M0 0 C2.578125 -0.04125 5.15625 -0.0825 7.8125 -0.125 C8.62050049 -0.14320801 9.42850098 -0.16141602 10.26098633 -0.18017578 C14.06519761 -0.20976568 15.76428169 -0.15714554 19 2 C19.36328125 4.75 19.36328125 4.75 19.3125 8 C19.30863281 9.0725 19.30476563 10.145 19.30078125 11.25 C19 14 19 14 17 16 C14.31160615 16.26991906 11.70858064 16.08737357 9 16 C9.47050781 16.53109375 9.94101562 17.0621875 10.42578125 17.609375 C11.04839844 18.31578125 11.67101562 19.0221875 12.3125 19.75 C13.23482422 20.79414063 13.23482422 20.79414063 14.17578125 21.859375 C15.87314734 23.85114506 17.45477809 25.88898915 19 28 C16.7265625 28.2734375 16.7265625 28.2734375 14 28 C12.0859375 26.1015625 12.0859375 26.1015625 10.375 23.625 C8.29761375 20.6640196 7.05475462 19.03650308 4 17 C4 20.63 4 24.26 4 28 C2.68 28 1.36 28 0 28 C0 18.76 0 9.52 0 0 Z " fill="#1B1917" transform="translate(355,343)"/>
<path d="M0 0 C4.48611475 2.62078637 6.52638553 6.31521911 8.06640625 11.25390625 C8.63603109 14.12255745 8.8110973 16.95712795 9 19.875 C9.2564955 23.82777892 9.70224434 27.5617371 10.5 31.4375 C10.5 32.4275 10.5 33.4175 10.5 34.4375 C9.18 34.1075 7.86 33.7775 6.5 33.4375 C6.685625 32.65375 6.87125 31.87 7.0625 31.0625 C7.75962266 28.46660225 7.75962266 28.46660225 6.5 26.4375 C6.09570047 23.33174455 5.7341136 20.22790311 5.42578125 17.11132812 C4.92698754 12.83776509 3.97293375 9.94807179 1.5 6.4375 C0.84 5.4475 0.18 4.4575 -0.5 3.4375 C-4.8620075 0.92604114 -9.59938504 0.82381138 -14.5 1.4375 C-17.37146994 2.80747157 -17.37146994 2.80747157 -19.5 4.4375 C-20.16 4.4375 -20.82 4.4375 -21.5 4.4375 C-24.09548691 9.2824089 -24.69172896 13.37673936 -24.8125 18.875 C-24.86857422 20.54369141 -24.86857422 20.54369141 -24.92578125 22.24609375 C-24.39355957 26.23531499 -23.41993225 27.68738611 -20.5 30.4375 C-15.05771701 33.48490939 -10.22522596 33.95119226 -4.0625 34.125 C-3.23556641 34.15916016 -2.40863281 34.19332031 -1.55664062 34.22851562 C0.46178944 34.31018621 2.48086884 34.37553724 4.5 34.4375 C4.5 36.0875 4.5 37.7375 4.5 39.4375 C3.82324219 39.27378906 3.14648438 39.11007812 2.44921875 38.94140625 C-0.96769942 38.35758844 -4.22212837 38.40013741 -7.6875 38.375 C-14.42839345 38.10691503 -18.48878178 36.16841392 -23.546875 31.73828125 C-27.73376531 26.80612446 -28.91631613 22.67465779 -28.875 16.25 C-28.88273437 15.03957031 -28.89046875 13.82914062 -28.8984375 12.58203125 C-28.47198397 9.21639307 -28.08044848 8.46215958 -25.5 6.4375 C-25.2525 5.798125 -25.005 5.15875 -24.75 4.5 C-19.79238552 -3.68006389 -7.87062682 -3.39834541 0 0 Z " fill="#9B96C3" transform="translate(408.5,280.5625)"/>
<path d="M0 0 C3.31248078 -0.02945031 6.62492711 -0.04694801 9.9375 -0.0625 C10.86369141 -0.07087891 11.78988281 -0.07925781 12.74414062 -0.08789062 C28.54740444 -0.14334067 28.54740444 -0.14334067 35.0625 3.0625 C36.19365234 3.60583984 36.19365234 3.60583984 37.34765625 4.16015625 C37.89292969 4.43730469 38.43820312 4.71445312 39 5 C38.34 5.33 37.68 5.66 37 6 C37 6.66 37 7.32 37 8 C38.65 8.33 40.3 8.66 42 9 C38.25 10.125 38.25 10.125 36 9 C36 8.34 36 7.68 36 7 C25.18496792 5.8718548 14.41206195 5.84633332 3.55004883 5.86962891 C0.54438333 5.87503257 -2.46113564 5.8696321 -5.46679688 5.86328125 C-7.39322949 5.86394137 -9.31966202 5.86522115 -11.24609375 5.8671875 C-12.58213905 5.86415115 -12.58213905 5.86415115 -13.94517517 5.86105347 C-18.43047006 5.87791497 -22.57430661 6.20976497 -27 7 C-29.52678028 7.14336947 -32.0560846 7.24557037 -34.5859375 7.31640625 C-35.28772125 7.33718735 -35.989505 7.35796844 -36.71255493 7.37937927 C-38.93327958 7.44426324 -41.15411276 7.5034723 -43.375 7.5625 C-44.88933371 7.60574354 -46.40365683 7.6493596 -47.91796875 7.69335938 C-51.61186655 7.79988086 -55.30588354 7.90131677 -59 8 C-55.48348531 4.62795359 -52.17376929 4.54536692 -47.53125 4.5234375 C-46.813927 4.50785797 -46.096604 4.49227844 -45.35754395 4.47622681 C-43.07170694 4.42882537 -40.78617199 4.40099564 -38.5 4.375 C-36.21404377 4.338417 -33.92825505 4.29769906 -31.64245605 4.25234985 C-30.22238981 4.22529547 -28.80220211 4.20387042 -27.38195801 4.18881226 C-24.0930257 4.13668412 -21.16148853 3.89472023 -18 3 C-16.63323368 2.86070644 -15.2625433 2.75634699 -13.890625 2.68359375 C-13.13652344 2.64169922 -12.38242188 2.59980469 -11.60546875 2.55664062 C-10.82816406 2.51732422 -10.05085938 2.47800781 -9.25 2.4375 C-8.45722656 2.39431641 -7.66445312 2.35113281 -6.84765625 2.30664062 C-4.89862185 2.20097009 -2.94933252 2.10002034 -1 2 C-0.67 1.34 -0.34 0.68 0 0 Z " fill="#F72221" transform="translate(262,258)"/>
<path d="M0 0 C1.32 0 2.64 0 4 0 C4 9.24 4 18.48 4 28 C2.35 28.33 0.7 28.66 -1 29 C-4.3 22.07 -7.6 15.14 -11 8 C-11.33 14.93 -11.66 21.86 -12 29 C-12.99 29 -13.98 29 -15 29 C-15 20.09 -15 11.18 -15 2 C-13.68 1.67 -12.36 1.34 -11 1 C-7.94966547 3.08010764 -7.09875693 5.91335522 -5.9375 9.3125 C-5.60105469 10.28445313 -5.26460938 11.25640625 -4.91796875 12.2578125 C-4.61503906 13.16273438 -4.31210937 14.06765625 -4 15 C-3.5875 16.216875 -3.175 17.43375 -2.75 18.6875 C-2.5025 19.450625 -2.255 20.21375 -2 21 C-1.34 21 -0.68 21 0 21 C0 14.07 0 7.14 0 0 Z " fill="#1F1D1C" transform="translate(324,342)"/>
<path d="M0 0 C0.495 1.98 0.495 1.98 1 4 C-0.32 3.67 -1.64 3.34 -3 3 C-3 3.66 -3 4.32 -3 5 C-8.75 8 -8.75 8 -11 8 C-11 8.99 -11 9.98 -11 11 C-13.64 10.67 -16.28 10.34 -19 10 C-19.33 10.99 -19.66 11.98 -20 13 C-21.32064453 13.07347656 -21.32064453 13.07347656 -22.66796875 13.1484375 C-24.41013672 13.26058594 -24.41013672 13.26058594 -26.1875 13.375 C-27.91033203 13.47941406 -27.91033203 13.47941406 -29.66796875 13.5859375 C-32.82695794 13.97849653 -35.1718932 14.56268064 -38 16 C-38.33 16.66 -38.66 17.32 -39 18 C-45.93517357 19.93275329 -52.83229781 20.53913252 -60 21 C-60 21.66 -60 22.32 -60 23 C-61.32 23 -62.64 23 -64 23 C-64 24.32 -64 25.64 -64 27 C-65.98 27 -67.96 27 -70 27 C-70.33 27.66 -70.66 28.32 -71 29 C-72.32 29 -73.64 29 -75 29 C-75 29.99 -75 30.98 -75 32 C-76.65 32 -78.3 32 -80 32 C-80.99 34.475 -80.99 34.475 -82 37 C-82.66 37 -83.32 37 -84 37 C-83.67 40.63 -83.34 44.26 -83 48 C-81.68 48.33 -80.36 48.66 -79 49 C-77.25 51.0625 -77.25 51.0625 -76 53 C-78.64 52.34 -81.28 51.68 -84 51 C-84 50.01 -84 49.02 -84 48 C-84.99 47.67 -85.98 47.34 -87 47 C-87.125 39.375 -87.125 39.375 -86 36 C-85.01 36 -84.02 36 -83 36 C-83.33 34.35 -83.66 32.7 -84 31 C-83.360625 30.7525 -82.72125 30.505 -82.0625 30.25 C-80.29032997 29.52666529 -78.52881089 28.77278959 -76.8046875 27.94140625 C-75.63292969 27.38259766 -75.63292969 27.38259766 -74.4375 26.8125 C-73.69371094 26.44769531 -72.94992188 26.08289063 -72.18359375 25.70703125 C-69.67739597 24.89554324 -68.44701547 25.1288403 -66 26 C-65.938125 25.21625 -65.87625 24.4325 -65.8125 23.625 C-65 21 -65 21 -63 19.75 C-59.0281175 18.75702938 -55.07450187 18.33732259 -51 18 C-51 17.34 -51 16.68 -51 16 C-47.37 15.67 -43.74 15.34 -40 15 C-40 14.34 -40 13.68 -40 13 C-33.92972642 10.8416805 -28.40629424 10.79147686 -22 11 C-22 10.01 -22 9.02 -22 8 C-17.77199574 5.88599787 -13.84777966 5.65709321 -9.20703125 5.44140625 C-6.61882525 5.19427022 -6.61882525 5.19427022 -5 2 C-2.375 0.8125 -2.375 0.8125 0 0 Z " fill="#F7615E" transform="translate(110,255)"/>
<path d="M0 0 C0.70189453 0.01353516 1.40378906 0.02707031 2.12695312 0.04101562 C3.85579829 0.07629818 5.58424765 0.13010417 7.3125 0.1875 C7.3125 1.5075 7.3125 2.8275 7.3125 4.1875 C0.8775 4.6825 0.8775 4.6825 -5.6875 5.1875 C-6.0175 7.4975 -6.3475 9.8075 -6.6875 12.1875 C-2.3975 12.1875 1.8925 12.1875 6.3125 12.1875 C6.3125 13.5075 6.3125 14.8275 6.3125 16.1875 C2.0225 16.1875 -2.2675 16.1875 -6.6875 16.1875 C-6.3575 18.4975 -6.0275 20.8075 -5.6875 23.1875 C-1.3975 23.5175 2.8925 23.8475 7.3125 24.1875 C7.3125 25.5075 7.3125 26.8275 7.3125 28.1875 C4.87433415 28.2684723 2.43885616 28.32796972 0 28.375 C-1.03543945 28.41270508 -1.03543945 28.41270508 -2.09179688 28.45117188 C-7.2115792 28.52537162 -7.2115792 28.52537162 -9.38598633 26.98168945 C-11.1055907 24.61114498 -11.07482254 23.10067907 -11.0859375 20.1875 C-11.08980469 19.218125 -11.09367187 18.24875 -11.09765625 17.25 C-11.08605469 16.239375 -11.07445312 15.22875 -11.0625 14.1875 C-11.07410156 13.176875 -11.08570313 12.16625 -11.09765625 11.125 C-11.09378906 10.155625 -11.08992188 9.18625 -11.0859375 8.1875 C-11.08255371 7.300625 -11.07916992 6.41375 -11.07568359 5.5 C-10.6875 3.1875 -10.6875 3.1875 -9.38598633 1.39331055 C-6.55141526 -0.61904341 -3.33617086 -0.12148521 0 0 Z " fill="#232220" transform="translate(342.6875,342.8125)"/>
<path d="M0 0 C2.40893555 0.15795898 2.40893555 0.15795898 5 1 C6.39379883 2.94946289 6.39379883 2.94946289 7.45703125 5.47265625 C7.84697266 6.37177734 8.23691406 7.27089844 8.63867188 8.19726562 C9.02603516 9.14279297 9.41339844 10.08832031 9.8125 11.0625 C10.21919922 12.01189453 10.62589844 12.96128906 11.04492188 13.93945312 C12.04709544 16.28571829 13.02580475 18.64198055 14 21 C14.33 14.07 14.66 7.14 15 0 C15.99 0 16.98 0 18 0 C18 8.91 18 17.82 18 27 C16.35 27.33 14.7 27.66 13 28 C12.68546875 27.23816406 12.3709375 26.47632813 12.046875 25.69140625 C10.7064066 22.45732437 9.35525895 19.22791019 8 16 C7.42958984 14.63101562 7.42958984 14.63101562 6.84765625 13.234375 C6.50605469 12.43515625 6.16445312 11.6359375 5.8125 10.8125 C5.50957031 10.09707031 5.20664063 9.38164062 4.89453125 8.64453125 C4.10099649 6.81215615 4.10099649 6.81215615 2 6 C2 13.26 2 20.52 2 28 C1.01 28 0.02 28 -1 28 C-1.02886338 23.52084672 -1.04675187 19.04171709 -1.0625 14.5625 C-1.07087891 13.28310547 -1.07925781 12.00371094 -1.08789062 10.68554688 C-1.09111328 9.47060547 -1.09433594 8.25566406 -1.09765625 7.00390625 C-1.10289307 5.87799072 -1.10812988 4.7520752 -1.11352539 3.59204102 C-1 1 -1 1 0 0 Z " fill="#0F0E0D" transform="translate(102,343)"/>
<path d="M0 0 C0.70125 0.01417969 1.4025 0.02835937 2.125 0.04296875 C3.176875 0.05263672 3.176875 0.05263672 4.25 0.0625 C6.125 0.23046875 6.125 0.23046875 8.125 1.23046875 C8.15388514 4.37628298 8.17175923 7.52206344 8.1875 10.66796875 C8.19587891 11.56580078 8.20425781 12.46363281 8.21289062 13.38867188 C8.21611328 14.24267578 8.21933594 15.09667969 8.22265625 15.9765625 C8.22789307 16.76732178 8.23312988 17.55808105 8.23852539 18.37280273 C8.125 20.23046875 8.125 20.23046875 7.125 21.23046875 C5.43891034 21.30252386 3.74999341 21.31432943 2.0625 21.29296875 C1.14339844 21.28394531 0.22429687 21.27492188 -0.72265625 21.265625 C-1.43292969 21.25402344 -2.14320313 21.24242187 -2.875 21.23046875 C-4.51676774 17.94693326 -4.05954039 14.33527237 -4.0625 10.73046875 C-4.07474609 9.94542969 -4.08699219 9.16039062 -4.09960938 8.3515625 C-4.10486254 6.30983149 -3.9972018 4.26854624 -3.875 2.23046875 C-1.875 0.23046875 -1.875 0.23046875 0 0 Z " fill="#E5E4E2" transform="translate(131.875,345.76953125)"/>
<path d="M0 0 C1.17046875 0.03609375 2.3409375 0.0721875 3.546875 0.109375 C4.43890625 0.15578125 5.3309375 0.2021875 6.25 0.25 C6.25 1.57 6.25 2.89 6.25 4.25 C-0.185 4.745 -0.185 4.745 -6.75 5.25 C-7.08 7.56 -7.41 9.87 -7.75 12.25 C-3.46 12.25 0.83 12.25 5.25 12.25 C5.25 13.57 5.25 14.89 5.25 16.25 C1.29 16.25 -2.67 16.25 -6.75 16.25 C-6.75 18.89 -6.75 21.53 -6.75 24.25 C-2.46 24.25 1.83 24.25 6.25 24.25 C6.25 25.57 6.25 26.89 6.25 28.25 C4.16781638 28.35832169 2.08400871 28.43573541 0 28.5 C-1.74023438 28.56960938 -1.74023438 28.56960938 -3.515625 28.640625 C-6.75 28.25 -6.75 28.25 -9.140625 26.859375 C-11.64439713 22.79986096 -11.33012902 18.92419298 -11.25 14.25 C-11.26546875 13.34765625 -11.2809375 12.4453125 -11.296875 11.515625 C-11.27366028 7.59233798 -11.22630211 5.02225682 -9.140625 1.640625 C-5.93684026 -0.22301449 -3.68184998 -0.147274 0 0 Z " fill="#1D1B1A" transform="translate(42.75,342.75)"/>
<path d="M0 0 C0.95003906 0.00128906 1.90007812 0.00257813 2.87890625 0.00390625 C5.89296093 0.51468498 6.60623408 1.04221334 8.4375 3.4375 C8.82568359 5.75 8.82568359 5.75 8.8359375 8.4375 C8.84173828 9.8915625 8.84173828 9.8915625 8.84765625 11.375 C8.83605469 12.385625 8.82445312 13.39625 8.8125 14.4375 C8.82410156 15.448125 8.83570313 16.45875 8.84765625 17.5 C8.84378906 18.469375 8.83992188 19.43875 8.8359375 20.4375 C8.83086182 21.7678125 8.83086182 21.7678125 8.82568359 23.125 C8.36113737 25.89240997 7.66777405 26.78069645 5.4375 28.4375 C2.87890625 28.87109375 2.87890625 28.87109375 0 28.875 C-0.94746094 28.89433594 -1.89492187 28.91367187 -2.87109375 28.93359375 C-5.5625 28.4375 -5.5625 28.4375 -7.87890625 27.03515625 C-10.49328312 23.00137291 -10.14312424 19.14058048 -10.0625 14.4375 C-10.07796875 13.53515625 -10.0934375 12.6328125 -10.109375 11.703125 C-10.0859026 7.73628979 -10.06717927 5.21618148 -7.87890625 1.83984375 C-5.04612393 0.12488784 -3.29786132 -0.06730329 0 0 Z M-6.5625 5.4375 C-6.7346221 8.3081466 -6.79473075 11.07002342 -6.75 13.9375 C-6.74935547 14.72253906 -6.74871094 15.50757813 -6.74804688 16.31640625 C-6.81475279 20.51092326 -6.81475279 20.51092326 -5.5625 24.4375 C-3.91675434 24.46438151 -2.27088587 24.48384123 -0.625 24.5 C0.74978516 24.51740234 0.74978516 24.51740234 2.15234375 24.53515625 C4.40343327 24.69699049 4.40343327 24.69699049 5.4375 23.4375 C5.52401611 22.02179877 5.54454904 20.601905 5.53515625 19.18359375 C5.53193359 18.32958984 5.52871094 17.47558594 5.52539062 16.59570312 C5.51701172 15.69787109 5.50863281 14.80003906 5.5 13.875 C5.49548828 12.97330078 5.49097656 12.07160156 5.48632812 11.14257812 C5.47450225 8.90748686 5.4580222 6.67252563 5.4375 4.4375 C3.20859005 3.32304502 1.90694894 3.27269714 -0.5625 3.25 C-1.26375 3.23582031 -1.965 3.22164063 -2.6875 3.20703125 C-4.80774938 3.27237677 -4.80774938 3.27237677 -6.5625 5.4375 Z " fill="#100E0E" transform="translate(177.5625,342.5625)"/>
<path d="M0 0 C0.99 0 1.98 0 3 0 C3 3.96 3 7.92 3 12 C7.29 12 11.58 12 16 12 C16 8.04 16 4.08 16 0 C16.99 0 17.98 0 19 0 C19 9.24 19 18.48 19 28 C17.68 28 16.36 28 15 28 C15 24.04 15 20.08 15 16 C11.04 16 7.08 16 3 16 C3 19.96 3 23.92 3 28 C2.01 28 1.02 28 0 28 C0 18.76 0 9.52 0 0 Z " fill="#0D0C0C" transform="translate(77,343)"/>
<path d="M0 0 C0.495 1.98 0.495 1.98 1 4 C-2.40562852 4.77842938 -5.50765756 5.09978121 -9 5 C-9.33 5.99 -9.66 6.98 -10 8 C-14.16308211 9.79909006 -18.12629837 10.36616417 -22.625 10.6875 C-24.28402344 10.81705078 -24.28402344 10.81705078 -25.9765625 10.94921875 C-28.60062882 10.99329222 -30.52621147 10.80247286 -33 10 C-33 10.99 -33 11.98 -33 13 C-35.31 12.67 -37.62 12.34 -40 12 C-40 12.66 -40 13.32 -40 14 C-41.98 13.67 -43.96 13.34 -46 13 C-46.08121094 13.62390625 -46.16242188 14.2478125 -46.24609375 14.890625 C-47 17 -47 17 -48.84765625 18.046875 C-49.57855469 18.27890625 -50.30945313 18.5109375 -51.0625 18.75 C-51.79597656 18.99234375 -52.52945313 19.2346875 -53.28515625 19.484375 C-53.85105469 19.65453125 -54.41695312 19.8246875 -55 20 C-55.33 19.67 -55.66 19.34 -56 19 C-57.68608966 18.92794489 -59.37500659 18.91613932 -61.0625 18.9375 C-61.98160156 18.94652344 -62.90070313 18.95554688 -63.84765625 18.96484375 C-64.55792969 18.97644531 -65.26820312 18.98804688 -66 19 C-66 19.66 -66 20.32 -66 21 C-67.60379341 21.05416188 -69.20811406 21.09286638 -70.8125 21.125 C-71.70582031 21.14820313 -72.59914063 21.17140625 -73.51953125 21.1953125 C-76 21 -76 21 -79 19 C-72.375 18.875 -72.375 18.875 -69 20 C-68.67 19.01 -68.34 18.02 -68 17 C-64.04 16.505 -64.04 16.505 -60 16 C-60 15.34 -60 14.68 -60 14 C-54.06 13.505 -54.06 13.505 -48 13 C-48 12.34 -48 11.68 -48 11 C-47.14535156 10.86722656 -46.29070312 10.73445312 -45.41015625 10.59765625 C-44.30542969 10.42105469 -43.20070312 10.24445313 -42.0625 10.0625 C-40.96035156 9.88847656 -39.85820312 9.71445313 -38.72265625 9.53515625 C-36.09573071 9.28154864 -36.09573071 9.28154864 -35 8 C-32.13732433 7.92674832 -29.299281 7.90761795 -26.4375 7.9375 C-25.63119141 7.94201172 -24.82488281 7.94652344 -23.99414062 7.95117188 C-21.99606244 7.96299482 -19.99802217 7.98093086 -18 8 C-18 7.34 -18 6.68 -18 6 C-11.75690073 3.22528921 -6.80203375 2.62365797 0 3 C0 2.01 0 1.02 0 0 Z " fill="#F7302E" transform="translate(190,235)"/>
<path d="M0 0 C1.06863281 0.01804687 2.13726562 0.03609375 3.23828125 0.0546875 C4.04652344 0.07789063 4.85476562 0.10109375 5.6875 0.125 C5.6875 1.115 5.6875 2.105 5.6875 3.125 C4.40552734 3.21587891 4.40552734 3.21587891 3.09765625 3.30859375 C1.99292969 3.39238281 0.88820312 3.47617187 -0.25 3.5625 C-1.35214844 3.64371094 -2.45429688 3.72492188 -3.58984375 3.80859375 C-6.22359903 3.82918084 -6.22359903 3.82918084 -7.3125 5.125 C-7.39901611 6.54070123 -7.41954904 7.960595 -7.41015625 9.37890625 C-7.40693359 10.23291016 -7.40371094 11.08691406 -7.40039062 11.96679688 C-7.39201172 12.86462891 -7.38363281 13.76246094 -7.375 14.6875 C-7.37048828 15.58919922 -7.36597656 16.49089844 -7.36132812 17.41992188 C-7.34950244 19.65497589 -7.33156638 21.88999602 -7.3125 24.125 C-4.0125 23.795 -0.7125 23.465 2.6875 23.125 C3.0175 19.495 3.3475 15.865 3.6875 12.125 C5.0075 12.125 6.3275 12.125 7.6875 12.125 C7.79591951 14.04041138 7.87328079 15.95759773 7.9375 17.875 C7.98390625 18.94234375 8.0303125 20.0096875 8.078125 21.109375 C7.6875 24.125 7.6875 24.125 6.01953125 26.4921875 C3.15807472 28.49568637 1.58829931 28.60366338 -1.875 28.5 C-3.30005859 28.48066406 -3.30005859 28.48066406 -4.75390625 28.4609375 C-7.3125 28.125 -7.3125 28.125 -10.3125 26.125 C-11.29293964 23.18368109 -11.42871202 21.29998335 -11.41015625 18.23828125 C-11.40693359 17.30048828 -11.40371094 16.36269531 -11.40039062 15.39648438 C-11.38782227 13.93178711 -11.38782227 13.93178711 -11.375 12.4375 C-11.37048828 11.44943359 -11.36597656 10.46136719 -11.36132812 9.44335938 C-11.34954303 7.00384526 -11.33309011 4.56445311 -11.3125 2.125 C-7.38392246 0.27368517 -4.32474888 -0.09504943 0 0 Z " fill="#171615" transform="translate(203.3125,342.875)"/>
<path d="M0 0 C1.17046875 0.03609375 2.3409375 0.0721875 3.546875 0.109375 C4.43890625 0.15578125 5.3309375 0.2021875 6.25 0.25 C6.25 1.24 6.25 2.23 6.25 3.25 C4.96802734 3.34087891 4.96802734 3.34087891 3.66015625 3.43359375 C2.55542969 3.51738281 1.45070313 3.60117187 0.3125 3.6875 C-0.78964844 3.76871094 -1.89179688 3.84992188 -3.02734375 3.93359375 C-5.66109903 3.95418084 -5.66109903 3.95418084 -6.75 5.25 C-7.11760731 7.57817964 -7.45241581 9.9118385 -7.75 12.25 C-3.46 12.25 0.83 12.25 5.25 12.25 C5.25 13.57 5.25 14.89 5.25 16.25 C1.29 16.25 -2.67 16.25 -6.75 16.25 C-6.42 18.89 -6.09 21.53 -5.75 24.25 C-1.79 24.58 2.17 24.91 6.25 25.25 C6.25 26.24 6.25 27.23 6.25 28.25 C4.16781638 28.35832169 2.08400871 28.43573541 0 28.5 C-1.74023438 28.56960938 -1.74023438 28.56960938 -3.515625 28.640625 C-6.75 28.25 -6.75 28.25 -9.140625 26.859375 C-11.64439713 22.79986096 -11.33012902 18.92419298 -11.25 14.25 C-11.26546875 13.34765625 -11.2809375 12.4453125 -11.296875 11.515625 C-11.27366028 7.59233798 -11.22630211 5.02225682 -9.140625 1.640625 C-5.93684026 -0.22301449 -3.68184998 -0.147274 0 0 Z " fill="#141312" transform="translate(296.75,342.75)"/>
<path d="M0 0 C1.63001953 0.01353516 1.63001953 0.01353516 3.29296875 0.02734375 C4.12441406 0.03894531 4.95585937 0.05054688 5.8125 0.0625 C5.8125 1.0525 5.8125 2.0425 5.8125 3.0625 C4.53052734 3.15337891 4.53052734 3.15337891 3.22265625 3.24609375 C2.11792969 3.32988281 1.01320313 3.41367187 -0.125 3.5 C-1.22714844 3.58121094 -2.32929688 3.66242188 -3.46484375 3.74609375 C-6.09859903 3.76668084 -6.09859903 3.76668084 -7.1875 5.0625 C-7.28757008 7.88506491 -7.32625598 10.6777319 -7.3125 13.5 C-7.31636719 14.28955078 -7.32023437 15.07910156 -7.32421875 15.89257812 C-7.42882469 20.11120745 -7.42882469 20.11120745 -6.1875 24.0625 C-3.2175 24.0625 -0.2475 24.0625 2.8125 24.0625 C3.96064997 21.76620006 4.12019809 19.98551914 4.375 17.4375 C4.45878906 16.62023437 4.54257812 15.80296875 4.62890625 14.9609375 C4.68949219 14.33445312 4.75007813 13.70796875 4.8125 13.0625 C5.8025 13.0625 6.7925 13.0625 7.8125 13.0625 C7.92057131 14.99877769 7.9981225 16.93677756 8.0625 18.875 C8.10890625 19.95394531 8.1553125 21.03289062 8.203125 22.14453125 C7.8125 25.0625 7.8125 25.0625 6.140625 26.921875 C3.36124749 28.28358344 1.40170435 28.49575659 -1.6875 28.5 C-2.6259375 28.51933594 -3.564375 28.53867187 -4.53125 28.55859375 C-7.1875 28.0625 -7.1875 28.0625 -9.5078125 26.6640625 C-12.12359515 22.612641 -11.6898015 18.71350565 -11.5625 14 C-11.56121094 13.08927734 -11.55992187 12.17855469 -11.55859375 11.24023438 C-11.46898496 4.48472744 -11.46898496 4.48472744 -9.1875 1.0625 C-5.90230525 -0.03256492 -3.45086585 -0.03710608 0 0 Z " fill="#0F0D0D" transform="translate(389.1875,342.9375)"/>
<path d="M0 0 C1.18401686 3.55205058 0.64851441 5.34650448 0 9 C-0.09133995 11.16322607 -0.13466989 13.32879638 -0.14044189 15.49394226 C-0.14615204 16.78207321 -0.15186218 18.07020416 -0.15774536 19.39736938 C-0.1589905 20.81268301 -0.16011565 22.22799674 -0.16113281 23.64331055 C-0.16576553 25.14357118 -0.17079079 26.64383064 -0.17617798 28.14408875 C-0.18926114 32.21045762 -0.19573905 36.27681001 -0.20018864 40.34319663 C-0.20312624 42.88778957 -0.20723235 45.43237807 -0.21169281 47.97696877 C-0.22535758 55.95023663 -0.23502897 63.92349428 -0.2388947 71.89677304 C-0.24337174 81.07866 -0.26090747 90.26039783 -0.2898953 99.44223946 C-0.31156326 106.55415386 -0.32160172 113.66602645 -0.32293582 120.77797347 C-0.32398028 125.01877037 -0.32981103 129.25942689 -0.34775543 133.50018883 C-0.36432466 137.49345115 -0.36634908 141.48646889 -0.35761642 145.47975349 C-0.35685074 146.93773431 -0.36112633 148.39572877 -0.37107468 149.85367584 C-0.42587565 158.39196679 0.20860296 165.89663709 3 174 C0.69 173.34 -1.62 172.68 -4 172 C-2.68 171.67 -1.36 171.34 0 171 C-0.32476192 169.98616556 -0.64952385 168.97233112 -0.98412704 167.92777443 C-2.01943487 164.28597964 -2.25149634 160.95541396 -2.25396729 157.15560913 C-2.25708727 156.50387116 -2.26020725 155.85213319 -2.26342177 155.18064559 C-2.2713411 153.01665749 -2.26510221 150.85295457 -2.25878906 148.68896484 C-2.26150157 147.12956072 -2.26506397 145.57015788 -2.26940918 144.01075745 C-2.27850299 139.78986434 -2.27500177 135.56906933 -2.26865101 131.34817457 C-2.26357723 126.92625641 -2.26828613 122.50434648 -2.27142334 118.08242798 C-2.2750582 110.65975439 -2.27027568 103.23712066 -2.26074219 95.81445312 C-2.24985054 87.2353078 -2.25339029 78.6562575 -2.264395 70.07711446 C-2.27347197 62.70539804 -2.27475138 55.33371021 -2.26951766 47.96199 C-2.26640125 43.56159255 -2.26597975 39.16123976 -2.27259064 34.76084518 C-2.27836971 30.62562295 -2.27435693 26.49052326 -2.26280212 22.35531425 C-2.26015889 20.83838161 -2.26091489 19.32143865 -2.26532745 17.80451012 C-2.2707975 15.73300895 -2.2639315 13.66189982 -2.25396729 11.59042358 C-2.25321323 10.4316036 -2.25245918 9.27278362 -2.25168228 8.07884789 C-1.99943956 4.9931441 -1.31280616 2.78548245 0 0 Z " fill="#D7D7D7" transform="translate(300,69)"/>
<path d="M0 0 C1.27230469 0.01804687 2.54460937 0.03609375 3.85546875 0.0546875 C5.31919922 0.08949219 5.31919922 0.08949219 6.8125 0.125 C6.8125 1.115 6.8125 2.105 6.8125 3.125 C5.53052734 3.21587891 5.53052734 3.21587891 4.22265625 3.30859375 C3.11792969 3.39238281 2.01320313 3.47617187 0.875 3.5625 C-0.22714844 3.64371094 -1.32929687 3.72492188 -2.46484375 3.80859375 C-5.09859903 3.82918084 -5.09859903 3.82918084 -6.1875 5.125 C-6.27401611 6.54070123 -6.29454904 7.960595 -6.28515625 9.37890625 C-6.28193359 10.23291016 -6.27871094 11.08691406 -6.27539062 11.96679688 C-6.26701172 12.86462891 -6.25863281 13.76246094 -6.25 14.6875 C-6.24548828 15.58919922 -6.24097656 16.49089844 -6.23632812 17.41992188 C-6.22450244 19.65497589 -6.20656638 21.88999602 -6.1875 24.125 C-1.8975 24.125 2.3925 24.125 6.8125 24.125 C6.8125 25.445 6.8125 26.765 6.8125 28.125 C4.35387599 28.17883848 1.8964245 28.21859038 -0.5625 28.25 C-1.61050781 28.27513672 -1.61050781 28.27513672 -2.6796875 28.30078125 C-4.51647486 28.31844267 -6.35351963 28.22803261 -8.1875 28.125 C-11.28977737 25.02272263 -10.48162395 21.75222661 -10.50976562 17.515625 C-10.50654297 16.39671875 -10.50332031 15.2778125 -10.5 14.125 C-10.51611328 13.00609375 -10.53222656 11.8871875 -10.54882812 10.734375 C-10.54947266 9.66703125 -10.55011719 8.5996875 -10.55078125 7.5 C-10.55376221 6.51773437 -10.55674316 5.53546875 -10.55981445 4.5234375 C-10.43695068 3.73195313 -10.31408691 2.94046875 -10.1875 2.125 C-6.4507157 -0.36618953 -4.44298181 -0.0815226 0 0 Z " fill="#110F0E" transform="translate(65.1875,342.875)"/>
<path d="M0 0 C5.61 0 11.22 0 17 0 C17 0.99 17 1.98 17 3 C15.02 3 13.04 3 11 3 C11 11.25 11 19.5 11 28 C9.68 28 8.36 28 7 28 C7 20.08 7 12.16 7 4 C4.69 4 2.38 4 0 4 C0 2.68 0 1.36 0 0 Z " fill="#232120" transform="translate(11,343)"/>
<path d="M0 0 C1.32 0 2.64 0 4 0 C5.98 3.63 7.96 7.26 10 11 C10.47050781 10.2059375 10.94101562 9.411875 11.42578125 8.59375 C12.04839844 7.5728125 12.67101562 6.551875 13.3125 5.5 C13.92738281 4.4790625 14.54226563 3.458125 15.17578125 2.40625 C16.07876953 1.21515625 16.07876953 1.21515625 17 0 C17.99 0 18.98 0 20 0 C19.51207027 4.02542023 18.10176419 6.85146808 16.03515625 10.25390625 C15.69355469 10.83011719 15.35195313 11.40632813 15 12 C14.64035156 12.60199219 14.28070313 13.20398438 13.91015625 13.82421875 C12.72715443 16.65225316 12.57406106 19.19773042 12.375 22.25 C12.30023438 23.32765625 12.22546875 24.4053125 12.1484375 25.515625 C12.09945313 26.33546875 12.05046875 27.1553125 12 28 C11.01 28 10.02 28 9 28 C9.020625 27.22398437 9.04125 26.44796875 9.0625 25.6484375 C8.86827438 15.47587091 5.2720771 9.31042677 0 1 C0 0.67 0 0.34 0 0 Z " fill="#0E0D0C" transform="translate(400,343)"/>
<path d="M0 0 C1.8359375 0.1875 1.8359375 0.1875 4 1 C5.4140625 3.25 5.4140625 3.25 6.625 6 C8.04292834 9.71465119 8.04292834 9.71465119 11 12 C11.268125 11.13375 11.53625 10.2675 11.8125 9.375 C12.97111987 6.08208036 14.38209839 3.08872125 16 0 C17.32 0 18.64 0 20 0 C18.65224844 3.6395803 16.96437404 6.76073714 14.9375 10.0625 C11.62734981 15.97405775 11.02337899 21.30191865 11 28 C10.01 28 9.02 28 8 28 C8.00902344 27.21238281 8.01804688 26.42476563 8.02734375 25.61328125 C7.79501086 17.07757296 5.7933421 11.73258333 1.49609375 4.58203125 C0 2 0 2 0 0 Z " fill="#0B0A0A" transform="translate(214,343)"/>
<path d="M0 0 C0.99 0.33 1.98 0.66 3 1 C3 2.65 3 4.3 3 6 C3.66 6 4.32 6 5 6 C5 6.99 5 7.98 5 9 C4.34 9.66 3.68 10.32 3 11 C3.33 11 3.66 11 4 11 C4.04898437 12.01320313 4.09796875 13.02640625 4.1484375 14.0703125 C4.22352564 15.42189911 4.29907081 16.77346038 4.375 18.125 C4.4059375 18.79015625 4.436875 19.4553125 4.46875 20.140625 C4.71883904 24.39213876 5.36238672 28.06136076 7 32 C8.78228936 33.14209817 8.78228936 33.14209817 11 34 C11.886875 34.845625 12.77375 35.69125 13.6875 36.5625 C17.36480543 39.77659729 21.26971947 39.88437092 26 40 C26 40.33 26 40.66 26 41 C19.48208608 41.3540919 14.82478551 41.03901852 9 38 C9 37.34 9 36.68 9 36 C8.01 36 7.02 36 6 36 C5.67 34.02 5.34 32.04 5 30 C4.34 30 3.68 30 3 30 C1.5192152 27.0384304 1.64685963 24.16493705 1.4375 20.875 C1.35371094 19.59367187 1.26992188 18.31234375 1.18359375 16.9921875 C1.12300781 16.00476563 1.06242187 15.01734375 1 14 C0.67 14.66 0.34 15.32 0 16 C-2.31 15.67 -4.62 15.34 -7 15 C-5.68 14.34 -4.36 13.68 -3 13 C-3 12.34 -3 11.68 -3 11 C-1.68 10.34 -0.36 9.68 1 9 C0.67 6.03 0.34 3.06 0 0 Z " fill="#CECAE0" transform="translate(376,278)"/>
<path d="M0 0 C1.77206192 0.00015919 3.54412846 0.00585754 5.31616211 0.01586914 C6.24698105 0.01728409 7.17779999 0.01869904 8.13682556 0.02015686 C11.12241777 0.02577367 14.10793615 0.03832899 17.09350586 0.05102539 C19.11238499 0.05603823 21.13126529 0.06060151 23.15014648 0.06469727 C28.11046158 0.07574856 33.07072118 0.09302444 38.03100586 0.11352539 C38.03100586 0.44352539 38.03100586 0.77352539 38.03100586 1.11352539 C31.54557486 2.62995184 25.68358534 3.21912189 19.03100586 3.11352539 C18.70100586 3.44352539 18.37100586 3.77352539 18.03100586 4.11352539 C15.51220069 4.2734103 13.01758319 4.37286764 10.49584961 4.42993164 C9.74259903 4.45071274 8.98934845 4.47149384 8.21327209 4.49290466 C5.79844596 4.55847964 3.38350788 4.6173216 0.96850586 4.67602539 C-0.66496943 4.71920309 -2.29843324 4.76281712 -3.93188477 4.80688477 C-7.94413878 4.91416901 -11.95650578 5.0154136 -15.96899414 5.11352539 C-15.96899414 4.45352539 -15.96899414 3.79352539 -15.96899414 3.11352539 C-14.79530273 2.91436523 -14.79530273 2.91436523 -13.59790039 2.71118164 C-12.58598633 2.53458008 -11.57407227 2.35797852 -10.53149414 2.17602539 C-9.5221582 2.00200195 -8.51282227 1.82797852 -7.47290039 1.64868164 C-3.69401156 0.84102521 -4.46534231 0.12772247 0 0 Z " fill="#FA1B19" transform="translate(221.968994140625,258.886474609375)"/>
<path d="M0 0 C0.99 0 1.98 0 3 0 C3.03758423 0.98395752 3.03758423 0.98395752 3.07592773 1.98779297 C3.1917326 4.95040183 3.31452886 7.91268031 3.4375 10.875 C3.47681641 11.90753906 3.51613281 12.94007813 3.55664062 14.00390625 C3.59853516 14.99003906 3.64042969 15.97617187 3.68359375 16.9921875 C3.72025146 17.90339355 3.75690918 18.81459961 3.79467773 19.75341797 C3.86577065 22.03483481 3.86577065 22.03483481 5 24 C7.8159849 24.46898963 7.8159849 24.46898963 11.0625 24.625 C12.16722656 24.69976562 13.27195313 24.77453125 14.41015625 24.8515625 C15.26480469 24.90054687 16.11945313 24.94953125 17 25 C17 25.99 17 26.98 17 28 C14.72942623 28.05398987 12.45848712 28.09278742 10.1875 28.125 C8.29064453 28.15980469 8.29064453 28.15980469 6.35546875 28.1953125 C3 28 3 28 0 26 C-0.34057617 23.38623047 -0.34057617 23.38623047 -0.29296875 20.1171875 C-0.2784668 18.36728516 -0.2784668 18.36728516 -0.26367188 16.58203125 C-0.23853516 15.35871094 -0.21339844 14.13539063 -0.1875 12.875 C-0.17396484 11.64394531 -0.16042969 10.41289062 -0.14648438 9.14453125 C-0.11103543 6.09592157 -0.06162079 3.048175 0 0 Z " fill="#110F0F" transform="translate(148,343)"/>
<path d="M0 0 C0.98484375 0.02707031 1.9696875 0.05414063 2.984375 0.08203125 C3.73203125 0.11683594 4.4796875 0.15164063 5.25 0.1875 C5.25 0.5175 5.25 0.8475 5.25 1.1875 C3.27 1.1875 1.29 1.1875 -0.75 1.1875 C-0.75 1.8475 -0.75 2.5075 -0.75 3.1875 C-3.83809695 4.95212683 -4.98312136 5.1875 -8.75 5.1875 C-8.75 5.8475 -8.75 6.5075 -8.75 7.1875 C-9.60722656 7.38085938 -10.46445313 7.57421875 -11.34765625 7.7734375 C-18.47572157 9.37870664 -18.47572157 9.37870664 -25.5 11.375 C-29.64141401 12.4103535 -33.50636364 12.36070965 -37.75 12.1875 C-38.08 13.8375 -38.41 15.4875 -38.75 17.1875 C-39.79800781 17.38666016 -39.79800781 17.38666016 -40.8671875 17.58984375 C-41.77726562 17.76644531 -42.68734375 17.94304687 -43.625 18.125 C-44.52992187 18.29902344 -45.43484375 18.47304688 -46.3671875 18.65234375 C-48.74956317 19.08713701 -48.74956317 19.08713701 -50.75 20.1875 C-50.42 18.8675 -50.09 17.5475 -49.75 16.1875 C-45.295 15.6925 -45.295 15.6925 -40.75 15.1875 C-40.09 13.5375 -39.43 11.8875 -38.75 10.1875 C-37.16773035 9.99122609 -35.58410729 9.80584462 -34 9.625 C-33.11828125 9.52058594 -32.2365625 9.41617187 -31.328125 9.30859375 C-28.86567549 9.19293324 -27.08461936 9.45111305 -24.75 10.1875 C-24.75 8.8675 -24.75 7.5475 -24.75 6.1875 C-23.76 6.1875 -22.77 6.1875 -21.75 6.1875 C-21.75 6.8475 -21.75 7.5075 -21.75 8.1875 C-19.77463255 7.83963292 -19.77463255 7.83963292 -17.75 7.1875 C-17.42 6.5275 -17.09 5.8675 -16.75 5.1875 C-15.656875 4.878125 -14.56375 4.56875 -13.4375 4.25 C-9.85233264 3.48398821 -9.85233264 3.48398821 -7.87890625 1.6328125 C-5.10275645 -0.25191305 -3.3189051 -0.11853232 0 0 Z " fill="#F53634" transform="translate(106.75,287.8125)"/>
<path d="M0 0 C0.33 0 0.66 0 1 0 C1 2.97 1 5.94 1 9 C-0.49988961 9.0276619 -1.99993869 9.0466861 -3.5 9.0625 C-4.3353125 9.07410156 -5.170625 9.08570313 -6.03125 9.09765625 C-9 9 -9 9 -12.68554688 8.51367188 C-16.78550804 7.98832272 -20.86982496 7.78502067 -25 7.68359375 C-25.7211499 7.66281265 -26.4422998 7.64203156 -27.18530273 7.62062073 C-29.45678507 7.55598066 -31.72836862 7.49664449 -34 7.4375 C-35.55339529 7.3942331 -37.10678087 7.35061642 -38.66015625 7.30664062 C-42.44000424 7.20038904 -46.21995252 7.0988892 -50 7 C-50 6.67 -50 6.34 -50 6 C-44.86979562 5.15365075 -39.88993063 4.85274907 -34.6875 4.8671875 C-33.91494873 4.86623077 -33.14239746 4.86527405 -32.34643555 4.86428833 C-30.72281818 4.86361175 -29.09919802 4.86542935 -27.47558594 4.86962891 C-25.00709896 4.8749846 -22.5387939 4.8696661 -20.0703125 4.86328125 C-18.4843746 4.86394212 -16.89843682 4.86522348 -15.3125 4.8671875 C-14.21844849 4.86415115 -14.21844849 4.86415115 -13.10229492 4.86105347 C-8.62415149 4.8812876 -4.40438079 5.27339262 0 6 C0 4.02 0 2.04 0 0 Z " fill="#630203" transform="translate(279,228)"/>
<path d="M0 0 C1.78345036 3.56690073 0.83650118 7.82298752 0.64453125 11.73828125 C1.08832829 15.81048487 2.02165772 17.21349942 5 20 C10.44228299 23.04740939 15.27477404 23.51369226 21.4375 23.6875 C22.26443359 23.72166016 23.09136719 23.75582031 23.94335938 23.79101562 C25.96178944 23.87268621 27.98086884 23.93803724 30 24 C30 25.65 30 27.3 30 29 C29.32324219 28.83628906 28.64648438 28.67257812 27.94921875 28.50390625 C24.53230058 27.92008844 21.27787163 27.96263741 17.8125 27.9375 C11.0802384 27.654618 6.78150443 25.85512934 1.83203125 21.2421875 C-0.89201966 17.90827445 -1.79304261 15.25854623 -2 11 C-2.05414063 10.19691406 -2.10828125 9.39382813 -2.1640625 8.56640625 C-2.2430966 6.32111941 -2.31393129 4.22521882 -2 2 C-1.34 1.34 -0.68 0.68 0 0 Z " fill="#4A439A" transform="translate(383,291)"/>
<path d="M0 0 C-1.017017 3.05105101 -1.82646048 3.82646048 -4 6 C-4 6.66 -4 7.32 -4 8 C-6.88211302 8.96070434 -8.69850044 9.10581883 -11.6875 9.0625 C-12.89986328 9.04896484 -12.89986328 9.04896484 -14.13671875 9.03515625 C-15.05904297 9.01775391 -15.05904297 9.01775391 -16 9 C-16 9.66 -16 10.32 -16 11 C-19.97995428 10.91827887 -23.95846952 10.80551266 -27.9375 10.6875 C-29.05447266 10.66494141 -30.17144531 10.64238281 -31.32226562 10.61914062 C-38.1401927 10.39920749 -43.64876248 9.51220742 -50 7 C-46.0265037 5.67550123 -43.9908583 6.85086513 -40 8 C-27.11371308 9.10494888 -15.26427074 7.27919441 -3.92578125 0.98828125 C-2 0 -2 0 0 0 Z " fill="#CDCBCA" transform="translate(146,240)"/>
<path d="M0 0 C1.47599073 0.04233482 2.95182482 0.09035829 4.42749023 0.14282227 C5.59066017 0.17823875 5.59066017 0.17823875 6.77732849 0.21437073 C9.26375833 0.29118741 11.74989067 0.37513351 14.23608398 0.45922852 C15.91770986 0.51243122 17.59935042 0.56517172 19.28100586 0.61743164 C23.41205504 0.74682672 27.54285101 0.88261792 31.67358398 1.02172852 C31.67358398 1.35172852 31.67358398 1.68172852 31.67358398 2.02172852 C30.64475098 2.04678467 29.61591797 2.07184082 28.5559082 2.09765625 C24.72034332 2.19218903 20.88494027 2.29229572 17.04956055 2.39404297 C15.39302368 2.43721901 13.73644726 2.47890548 12.07983398 2.51904297 C9.69169219 2.57716781 7.30374629 2.640738 4.91577148 2.70532227 C3.81384964 2.73039101 3.81384964 2.73039101 2.68966675 2.75596619 C-1.41063687 2.87275128 -5.28925335 3.33954129 -9.32641602 4.02172852 C-11.8531963 4.16509798 -14.38250062 4.26729888 -16.91235352 4.33813477 C-17.61413727 4.35891586 -18.31592102 4.37969696 -19.03897095 4.40110779 C-21.2596956 4.46599176 -23.48052877 4.52520081 -25.70141602 4.58422852 C-27.21574972 4.62747206 -28.73007284 4.67108812 -30.24438477 4.71508789 C-33.93828256 4.82160938 -37.63229955 4.92304528 -41.32641602 5.02172852 C-37.79228053 1.61815201 -34.42231154 1.56692837 -29.75219727 1.54516602 C-29.02775925 1.52958649 -28.30332123 1.51400696 -27.55693054 1.49795532 C-25.25093598 1.45054685 -22.94524315 1.42269904 -20.63891602 1.39672852 C-18.32208802 1.36026193 -16.00543207 1.31970585 -13.68876648 1.27407837 C-12.24877499 1.24680577 -10.8086568 1.22547444 -9.3684845 1.21054077 C-5.77262156 1.15356786 -3.41973986 0.02233812 0 0 Z " fill="#F78B88" transform="translate(244.326416015625,260.978271484375)"/>
<path d="M0 0 C1.81242052 -0.02687279 3.62495233 -0.04633715 5.4375 -0.0625 C6.44683594 -0.07410156 7.45617187 -0.08570313 8.49609375 -0.09765625 C11 0 11 0 12 1 C12.125 4.5 12.125 4.5 12 8 C10.26043342 9.73956658 7.8063378 9.37190386 5.4375 9.5625 C3.91962891 9.68818359 3.91962891 9.68818359 2.37109375 9.81640625 C1.58863281 9.87699219 0.80617188 9.93757813 0 10 C0 6.7 0 3.4 0 0 Z " fill="#E8E8E8" transform="translate(359,347)"/>
<path d="M0 0 C8.30422604 0.92998579 16.14767614 1.96927851 24 5 C23.34 5.66 22.68 6.32 22 7 C22.66 7.66 23.32 8.32 24 9 C13.151423 8.12951538 3.99312184 6.55338769 -6 2 C-2.73800839 0.89807442 -1.07541794 1.07713095 2.0625 2.4375 C4.72490153 3.57706918 6.02692088 4 9 4 C6.03 3.01 3.06 2.02 0 1 C0 0.67 0 0.34 0 0 Z " fill="#F53C39" transform="translate(326,274)"/>
<path d="M0 0 C0 4.0333534 -1.60879918 5.83517538 -4 9 C-4.66 9 -5.32 9 -6 9 C-5.67 12.63 -5.34 16.26 -5 20 C-3.68 20.33 -2.36 20.66 -1 21 C0.75 23.0625 0.75 23.0625 2 25 C-0.64 24.34 -3.28 23.68 -6 23 C-6 22.01 -6 21.02 -6 20 C-6.99 19.67 -7.98 19.34 -9 19 C-9.125 11.375 -9.125 11.375 -8 8 C-7.01 8 -6.02 8 -5 8 C-5.33 6.35 -5.66 4.7 -6 3 C-5.195625 2.690625 -4.39125 2.38125 -3.5625 2.0625 C-1.10919595 1.23664655 -1.10919595 1.23664655 0 0 Z " fill="#F58683" transform="translate(32,283)"/>
<path d="M0 0 C2.67927341 4.01891012 2.15601248 6.24161923 2 11 C2.763125 11.061875 3.52625 11.12375 4.3125 11.1875 C8.67218404 12.14810835 12.29702736 13.89971615 16.3203125 15.796875 C19.48026876 17.21563087 22.64685023 18.14527555 26 19 C28.00361307 19.65572791 30.00491933 20.31875294 32 21 C32 21.33 32 21.66 32 22 C25.46144981 21.47848054 19.85038447 20.20140102 13.6875 18 C12.12932329 17.45713482 10.57074298 16.91542641 9.01171875 16.375 C8.33584717 16.13523438 7.65997559 15.89546875 6.96362305 15.6484375 C5.00522215 15.00172449 3.00084024 14.50021006 1 14 C0.67 9.38 0.34 4.76 0 0 Z " fill="#E6403D" transform="translate(279,224)"/>
<path d="M0 0 C2.8751945 1.28888029 5.0071564 2.53266983 7 5 C8.11073825 8.42674568 8.26827168 11.85812501 8.5 15.4375 C8.7564955 19.39027892 9.20224434 23.1242371 10 27 C10 27.99 10 28.98 10 30 C8.68 29.67 7.36 29.34 6 29 C6.185625 28.21625 6.37125 27.4325 6.5625 26.625 C7.25962266 24.02910225 7.25962266 24.02910225 6 22 C5.59570047 18.89424455 5.2341136 15.79040311 4.92578125 12.67382812 C4.42759441 8.40546458 3.44906464 5.51972903 1 2 C0.67 1.34 0.34 0.68 0 0 Z " fill="#4D479F" transform="translate(409,285)"/>
<path d="M0 0 C0.33 1.32 0.66 2.64 1 4 C-0.32 3.67 -1.64 3.34 -3 3 C-3 3.66 -3 4.32 -3 5 C-8.75 8 -8.75 8 -11 8 C-11 8.99 -11 9.98 -11 11 C-13.64 10.67 -16.28 10.34 -19 10 C-19.33 10.99 -19.66 11.98 -20 13 C-21.98 13 -23.96 13 -26 13 C-26 12.67 -26 12.34 -26 12 C-24.35 12 -22.7 12 -21 12 C-20.8453125 11.071875 -20.8453125 11.071875 -20.6875 10.125 C-20 8 -20 8 -17 6 C-14.42193548 5.66990746 -11.87305696 5.55956647 -9.27734375 5.44140625 C-8.15005859 5.22291016 -8.15005859 5.22291016 -7 5 C-6.34 4.01 -5.68 3.02 -5 2 C-2.375 0.8125 -2.375 0.8125 0 0 Z " fill="#F73532" transform="translate(110,255)"/>
<path d="M0 0 C4.23090117 0.30220723 6.25186236 3.02285089 9 6 C8.67 6.99 8.34 7.98 8 9 C1.84765625 9.09765625 1.84765625 9.09765625 0 9 C-1 8 -1 8 -1.125 4.5 C-1 1 -1 1 0 0 Z " fill="#E9E8E6" transform="translate(253,359)"/>
<path d="M0 0 C0.639375 0.144375 1.27875 0.28875 1.9375 0.4375 C4.40896918 0.89144332 6.75434195 1.1608367 9.25 1.375 C14.12292049 1.88580531 18.41824168 3.32920843 23 5 C24.7015625 5.5259375 24.7015625 5.5259375 26.4375 6.0625 C29 7 29 7 31 9 C24.25390382 8.33644956 17.65551466 7.28134207 11 6 C11 5.34 11 4.68 11 4 C10.37351562 3.87882813 9.74703125 3.75765625 9.1015625 3.6328125 C8.28429687 3.46523437 7.46703125 3.29765625 6.625 3.125 C5.81289063 2.96257812 5.00078125 2.80015625 4.1640625 2.6328125 C2 2 2 2 0 0 Z " fill="#F7736E" transform="translate(315,248)"/>
<path d="M0 0 C0.495 1.98 0.495 1.98 1 4 C-2.40562852 4.77842938 -5.50765756 5.09978121 -9 5 C-9.33 5.99 -9.66 6.98 -10 8 C-12.98109845 9.14577069 -16.03518052 9.18747828 -19.203125 9.31640625 C-20.1828125 9.35830078 -21.1625 9.40019531 -22.171875 9.44335938 C-23.18765625 9.48267578 -24.2034375 9.52199219 -25.25 9.5625 C-26.796875 9.62727539 -26.796875 9.62727539 -28.375 9.69335938 C-30.9165387 9.79925682 -33.45817196 9.90133443 -36 10 C-35.67 9.34 -35.34 8.68 -35 8 C-29.39 8 -23.78 8 -18 8 C-18 7.34 -18 6.68 -18 6 C-11.75690073 3.22528921 -6.80203375 2.62365797 0 3 C0 2.01 0 1.02 0 0 Z " fill="#F0726E" transform="translate(190,235)"/>
<path d="M0 0 C0.33 0.66 0.66 1.32 1 2 C-2.63 2.66 -6.26 3.32 -10 4 C-10 4.66 -10 5.32 -10 6 C-11.65 6 -13.3 6 -15 6 C-15 6.66 -15 7.32 -15 8 C-16.60379341 8.05416188 -18.20811406 8.09286638 -19.8125 8.125 C-20.70582031 8.14820313 -21.59914063 8.17140625 -22.51953125 8.1953125 C-25 8 -25 8 -28 6 C-21.375 5.875 -21.375 5.875 -18 7 C-17.67 6.01 -17.34 5.02 -17 4 C-14.36 3.67 -11.72 3.34 -9 3 C-9 2.34 -9 1.68 -9 1 C-4.545 0.505 -4.545 0.505 0 0 Z " fill="#F88D89" transform="translate(139,248)"/>
<path d="M0 0 C2.4375 0.1875 2.4375 0.1875 3.4375 1.1875 C3.6875 3.625 3.6875 3.625 3.4375 6.1875 C0.4375 8.1875 0.4375 8.1875 -1.75 7.8125 C-2.348125 7.60625 -2.94625 7.4 -3.5625 7.1875 C-4.1875 4.8125 -4.1875 4.8125 -4.5625 2.1875 C-2.5625 0.1875 -2.5625 0.1875 0 0 Z " fill="#D8D6D5" transform="translate(257.5625,345.8125)"/>
<path d="M0 0 C1.77007714 -0.08114106 3.54122098 -0.13925505 5.3125 -0.1875 C6.29863281 -0.22230469 7.28476563 -0.25710938 8.30078125 -0.29296875 C11 0 11 0 12.85546875 1.51171875 C13.23316406 2.00285156 13.61085937 2.49398438 14 3 C9.49646738 4.75747614 5.82360189 5.19294408 1 5 C0.67 3.35 0.34 1.7 0 0 Z " fill="#F92B29" transform="translate(173,268)"/>
<path d="M0 0 C0.33 0.66 0.66 1.32 1 2 C0.67 2.66 0.34 3.32 0 4 C1.98 4 3.96 4 6 4 C6.05399736 5.45792884 6.09279177 6.91642712 6.125 8.375 C6.14820313 9.18710937 6.17140625 9.99921875 6.1953125 10.8359375 C6 13 6 13 4 15 C4.33 11.7 4.66 8.4 5 5 C4.01 5 3.02 5 2 5 C2 6.65 2 8.3 2 10 C-0.46800047 8.84826645 -2.04783565 7.95216435 -4 6 C-4 5.01 -4 4.02 -4 3 C-2 1.3125 -2 1.3125 0 0 Z " fill="#C2BFBE" transform="translate(263,353)"/>
<path d="M0 0 C2.33302989 0.03762951 4.66713319 0.04665734 7 0 C7 0.33 7 0.66 7 1 C4.18998805 1.67901044 1.37774339 2.34333172 -1.4375 3 C-2.22060547 3.19078125 -3.00371094 3.3815625 -3.81054688 3.578125 C-9.33337573 4.85087568 -14.33286923 5.18152971 -20 5 C-20 4.67 -20 4.34 -20 4 C-19.04287109 3.81824219 -19.04287109 3.81824219 -18.06640625 3.6328125 C-17.24011719 3.46523438 -16.41382813 3.29765625 -15.5625 3.125 C-14.73878906 2.96257812 -13.91507813 2.80015625 -13.06640625 2.6328125 C-12.38449219 2.42398437 -11.70257813 2.21515625 -11 2 C-10.67 1.34 -10.34 0.68 -10 0 C-6.48845353 -1.43063004 -3.64601585 -0.64341456 0 0 Z " fill="#F86B68" transform="translate(167,273)"/>
<path d="M0 0 C-1.017017 3.05105101 -1.82646048 3.82646048 -4 6 C-4 6.66 -4 7.32 -4 8 C-7.47325181 9.1577506 -10.36067448 9.06866652 -14 9 C-10.91037009 4.36555513 -5.8912111 0 0 0 Z " fill="#DFD9D7" transform="translate(146,240)"/>
<path d="M0 0 C0.99 0.33 1.98 0.66 3 1 C2.67 7.93 2.34 14.86 2 22 C1.34 22 0.68 22 0 22 C0 14.74 0 7.48 0 0 Z " fill="#A39E9B" transform="translate(104,349)"/>
<path d="M0 0 C0 1.32 0 2.64 0 4 C-0.66515625 3.84402344 -1.3303125 3.68804687 -2.015625 3.52734375 C-6.26000725 2.77735474 -10.5248875 2.64840359 -14.82421875 2.48242188 C-16.55457642 2.39162093 -18.27925904 2.20355106 -20 2 C-20.33 1.34 -20.66 0.68 -21 0 C-19.95199219 0.01160156 -18.90398437 0.02320313 -17.82421875 0.03515625 C-16.44531428 0.04453655 -15.06640789 0.0536365 -13.6875 0.0625 C-12.99720703 0.07087891 -12.30691406 0.07925781 -11.59570312 0.08789062 C-7.43848402 0.10797381 -3.85225793 -1.28408598 0 0 Z " fill="#837EB6" transform="translate(413,316)"/>
<path d="M0 0 C0.33 0 0.66 0 1 0 C1.01458252 0.66942627 1.02916504 1.33885254 1.04418945 2.02856445 C1.11962925 5.12372874 1.21596527 8.21792455 1.3125 11.3125 C1.34633789 12.8912793 1.34633789 12.8912793 1.38085938 14.50195312 C1.62508126 21.71759983 2.7844521 28.12914868 5 35 C2.69 34.34 0.38 33.68 -2 33 C-0.02 32.505 -0.02 32.505 2 32 C1.67257812 31.11183594 1.34515625 30.22367188 1.0078125 29.30859375 C-0.60329915 23.66970299 -0.21090552 17.87433887 -0.125 12.0625 C-0.11597656 10.90169922 -0.10695313 9.74089844 -0.09765625 8.54492188 C-0.07421162 5.69639892 -0.04139522 2.84830922 0 0 Z " fill="#DDDDDD" transform="translate(298,208)"/>
<path d="M0 0 C3.34031082 0.57966348 4.8447003 1.5935687 7.1875 4 C11.14092138 7.59245682 14.78824899 7.97636394 20 8 C20 8.33 20 8.66 20 9 C13.48208608 9.3540919 8.82478551 9.03901852 3 6 C3 5.34 3 4.68 3 4 C2.01 4 1.02 4 0 4 C0 2.68 0 1.36 0 0 Z " fill="#CAC6DD" transform="translate(382,310)"/>
<path d="M0 0 C0.66 0.33 1.32 0.66 2 1 C1.67 1.99 1.34 2.98 1 4 C0.20335938 4.10957031 -0.59328125 4.21914063 -1.4140625 4.33203125 C-8.10438585 5.29636433 -8.10438585 5.29636433 -14.375 7.6875 C-17.67271708 9.33635854 -19.49959009 8.91677402 -23 8 C-23 7.67 -23 7.34 -23 7 C-21.35 7 -19.7 7 -18 7 C-18 6.34 -18 5.68 -18 5 C-11.92972642 2.8416805 -6.40629424 2.79147686 0 3 C0 2.01 0 1.02 0 0 Z " fill="#F58F8B" transform="translate(88,263)"/>
<path d="M0 0 C2.31 0 4.62 0 7 0 C7 0.33 7 0.66 7 1 C5.35 1 3.7 1 2 1 C2 1.99 2 2.98 2 4 C-1.63423209 6.32590854 -4.77088331 6.16265833 -9 6 C-9 5.34 -9 4.68 -9 4 C-10.32 4 -11.64 4 -13 4 C-12.67 3.01 -12.34 2.02 -12 1 C-11.67 1.33 -11.34 1.66 -11 2 C-9.32115762 2.3931648 -7.63149955 2.74085452 -5.9375 3.0625 C-5.01839844 3.23910156 -4.09929688 3.41570312 -3.15234375 3.59765625 C-2.44207031 3.73042969 -1.73179688 3.86320312 -1 4 C-0.67 2.68 -0.34 1.36 0 0 Z " fill="#F5726F" transform="translate(48,308)"/>
<path d="M0 0 C10.55808656 -0.18451025 10.55808656 -0.18451025 15 1 C10.82954142 3.78030572 7.01336726 4.29986321 2.0625 3.5625 C1.381875 3.376875 0.70125 3.19125 0 3 C0 2.01 0 1.02 0 0 Z " fill="#F9524F" transform="translate(132,277)"/>
<path d="M0 0 C2.31 0 4.62 0 7 0 C7 0.66 7 1.32 7 2 C5.02 2 3.04 2 1 2 C0.67 3.65 0.34 5.3 0 7 C-0.69867188 7.13277344 -1.39734375 7.26554687 -2.1171875 7.40234375 C-3.02726562 7.57894531 -3.93734375 7.75554687 -4.875 7.9375 C-5.77992187 8.11152344 -6.68484375 8.28554688 -7.6171875 8.46484375 C-9.99956317 8.89963701 -9.99956317 8.89963701 -12 10 C-11.67 8.68 -11.34 7.36 -11 6 C-6.545 5.505 -6.545 5.505 -2 5 C-1.34 3.35 -0.68 1.7 0 0 Z " fill="#F6807D" transform="translate(68,298)"/>
<path d="M0 0 C0.66 0.33 1.32 0.66 2 1 C2 1.33 2 1.66 2 2 C-3.94 2.33 -9.88 2.66 -16 3 C-16 2.34 -16 1.68 -16 1 C-10.69487426 -1.65256287 -5.57877391 -1.8595913 0 0 Z " fill="#980203" transform="translate(207,236)"/>
<path d="M0 0 C1.5 1.1875 1.5 1.1875 3 3 C3.1875 5.6875 3.1875 5.6875 3 8 C3.598125 8.0825 4.19625 8.165 4.8125 8.25 C7.5966296 9.20455872 8.43311142 10.57132271 10 13 C7.36 12.34 4.72 11.68 2 11 C2 10.01 2 9.02 2 8 C1.34 8 0.68 8 0 8 C0 5.36 0 2.72 0 0 Z " fill="#F46663" transform="translate(24,295)"/>
<path d="M0 0 C0.33 0 0.66 0 1 0 C1.06058594 0.88042969 1.12117188 1.76085937 1.18359375 2.66796875 C1.26738281 3.82941406 1.35117187 4.99085938 1.4375 6.1875 C1.55931641 7.91033203 1.55931641 7.91033203 1.68359375 9.66796875 C1.95432239 12.51897524 2.4247163 15.20093058 3 18 C3 18.99 3 19.98 3 21 C1.68 20.67 0.36 20.34 -1 20 C-0.75443359 19.00419922 -0.75443359 19.00419922 -0.50390625 17.98828125 C0.10603857 14.37116663 0.10795513 10.84139292 0.0625 7.1875 C0.05798828 6.49462891 0.05347656 5.80175781 0.04882812 5.08789062 C0.03713156 3.39188932 0.01919924 1.69593297 0 0 Z " fill="#6961AC" transform="translate(416,294)"/>
<path d="M0 0 C0.33 0 0.66 0 1 0 C1 2.97 1 5.94 1 9 C-0.62463842 9.05395478 -2.24978541 9.09277195 -3.875 9.125 C-4.77992188 9.14820313 -5.68484375 9.17140625 -6.6171875 9.1953125 C-9 9 -9 9 -11 7 C-5.555 6.505 -5.555 6.505 0 6 C0 4.02 0 2.04 0 0 Z " fill="#5B100F" transform="translate(279,228)"/>
<path d="M0 0 C2 0 2 0 4.046875 1.609375 C6.43325417 4.53030311 6.76573966 6.53733737 7.25 10.25 C7.39953125 11.32765625 7.5490625 12.4053125 7.703125 13.515625 C7.80109375 14.33546875 7.8990625 15.1553125 8 16 C7.34 16.33 6.68 16.66 6 17 C5.34 15.35 4.68 13.7 4 12 C4.33 11.67 4.66 11.34 5 11 C3.77472971 6.94718288 2.30119506 3.55639236 0 0 Z " fill="#F94A47" transform="translate(370,271)"/>
<path d="M0 0 C-0.33 0.66 -0.66 1.32 -1 2 C-1.99 1.67 -2.98 1.34 -4 1 C-4.33 1.66 -4.66 2.32 -5 3 C-7 5 -7 5 -10.2578125 5.1953125 C-11.53398437 5.17210937 -12.81015625 5.14890625 -14.125 5.125 C-16.04699219 5.09792969 -16.04699219 5.09792969 -18.0078125 5.0703125 C-19.48894531 5.03550781 -19.48894531 5.03550781 -21 5 C-21 4.67 -21 4.34 -21 4 C-17.04 4 -13.08 4 -9 4 C-8.67 3.01 -8.34 2.02 -8 1 C-5.29120665 -0.35439668 -2.99066732 -0.06501451 0 0 Z " fill="#ADABAA" transform="translate(218,342)"/>
<path d="M0 0 C2.67927341 4.01891012 2.15601248 6.24161923 2 11 C3.423125 11.185625 3.423125 11.185625 4.875 11.375 C8 12 8 12 10 14 C7.03 14 4.06 14 1 14 C0.67 9.38 0.34 4.76 0 0 Z " fill="#D99391" transform="translate(279,224)"/>
<path d="M0 0 C1.32 0.33 2.64 0.66 4 1 C3.01 1.66 2.02 2.32 1 3 C0.54625 3.845625 0.0925 4.69125 -0.375 5.5625 C-2 8 -2 8 -4.6875 8.8125 C-5.450625 8.874375 -6.21375 8.93625 -7 9 C-6.34 8.01 -5.68 7.02 -5 6 C-4.34 6 -3.68 6 -3 6 C-3 4.68 -3 3.36 -3 2 C-2.01 2 -1.02 2 0 2 C0 1.34 0 0.68 0 0 Z " fill="#EBE3EA" transform="translate(384,281)"/>
<path d="M0 0 C0.99 0.33 1.98 0.66 3 1 C3 2.65 3 4.3 3 6 C3.66 6 4.32 6 5 6 C5 6.99 5 7.98 5 9 C2.69 10.32 0.38 11.64 -2 13 C-2.33 12.34 -2.66 11.68 -3 11 C-1.68 10.34 -0.36 9.68 1 9 C0.67 6.03 0.34 3.06 0 0 Z " fill="#F59795" transform="translate(376,278)"/>
<path d="M0 0 C5.875 0.875 5.875 0.875 7 2 C7.04080783 3.99958364 7.04254356 6.00045254 7 8 C6.34 8 5.68 8 5 8 C4.67 6.68 4.34 5.36 4 4 C2.35 3.67 0.7 3.34 -1 3 C-0.67 2.01 -0.34 1.02 0 0 Z " fill="#020101" transform="translate(256,343)"/>
<path d="M0 0 C0.625 1.875 0.625 1.875 1 4 C0.34 4.66 -0.32 5.32 -1 6 C-1.24360073 9.12814514 -1.24360073 9.12814514 -1.125 12.625 C-1.10695313 13.81351562 -1.08890625 15.00203125 -1.0703125 16.2265625 C-1.04710937 17.14179688 -1.02390625 18.05703125 -1 19 C-3.86336371 16.13663629 -3.30016187 14.04771654 -3.3125 10.0625 C-3.32925781 8.81597656 -3.34601563 7.56945312 -3.36328125 6.28515625 C-3 3 -3 3 -1.48046875 1.05859375 C-0.99191406 0.70925781 -0.50335938 0.35992187 0 0 Z " fill="#938DBE" transform="translate(383,287)"/>
<path d="M0 0 C0.639375 0.144375 1.27875 0.28875 1.9375 0.4375 C5.29130208 1.05350446 8.61460462 1.35275028 12.01171875 1.62109375 C14 2 14 2 16 4 C11.72672888 5.24213914 9.28458881 4.69146302 5.1875 3.0625 C4.21167969 2.68222656 3.23585938 2.30195313 2.23046875 1.91015625 C1.49441406 1.60980469 0.75835937 1.30945313 0 1 C0 0.67 0 0.34 0 0 Z " fill="#F8A19D" transform="translate(315,248)"/>
<path d="M0 0 C0.99 0 1.98 0 3 0 C2.67 0.99 2.34 1.98 2 3 C-4.6 3.33 -11.2 3.66 -18 4 C-17.67 3.34 -17.34 2.68 -17 2 C-11.39 2 -5.78 2 0 2 C0 1.34 0 0.68 0 0 Z " fill="#F6928E" transform="translate(172,241)"/>
<path d="M0 0 C2.31 0.33 4.62 0.66 7 1 C6.01 1.33 5.02 1.66 4 2 C4.33 3.32 4.66 4.64 5 6 C2.36 5.34 -0.28 4.68 -3 4 C-1.68 3.34 -0.36 2.68 1 2 C0.67 1.34 0.34 0.68 0 0 Z " fill="#F83A38" transform="translate(369,287)"/>
<path d="M0 0 C1.32 0.99 2.64 1.98 4 3 C3.67 3.99 3.34 4.98 3 6 C0.36 6 -2.28 6 -5 6 C-5.33 5.34 -5.66 4.68 -6 4 C-2.535 3.505 -2.535 3.505 1 3 C0.67 2.01 0.34 1.02 0 0 Z " fill="#959391" transform="translate(258,362)"/>
<path d="M0 0 C1.4370809 -0.05422947 2.87475462 -0.09289723 4.3125 -0.125 C5.11300781 -0.14820313 5.91351563 -0.17140625 6.73828125 -0.1953125 C9 0 9 0 12 2 C8.7 2.66 5.4 3.32 2 4 C2 3.34 2 2.68 2 2 C1.34 2 0.68 2 0 2 C0 1.34 0 0.68 0 0 Z " fill="#FA3533" transform="translate(59,271)"/>
<path d="M0 0 C1.32 0.66 2.64 1.32 4 2 C2 4 2 4 -0.3828125 4.1953125 C-1.28773437 4.17210937 -2.19265625 4.14890625 -3.125 4.125 C-4.49011719 4.09792969 -4.49011719 4.09792969 -5.8828125 4.0703125 C-6.58148438 4.04710937 -7.28015625 4.02390625 -8 4 C-7.67 3.34 -7.34 2.68 -7 2 C-5.02 2 -3.04 2 -1 2 C-0.67 1.34 -0.34 0.68 0 0 Z " fill="#F6A4A1" transform="translate(101,257)"/>
<path d="M0 0 C-2.23637531 2.23637531 -4.09619927 2.83847971 -7 4 C-7.66 4.66 -8.32 5.32 -9 6 C-9 2 -9 2 -8 0 C-2.55072464 -1.27536232 -2.55072464 -1.27536232 0 0 Z " fill="#F9E9E7" transform="translate(48,314)"/>
<path d="M0 0 C2.64 0.33 5.28 0.66 8 1 C7.67 1.66 7.34 2.32 7 3 C4.35139573 3.59355614 1.70802678 3.74209269 -1 4 C-0.67 2.68 -0.34 1.36 0 0 Z " fill="#F81515" transform="translate(181,239)"/>
<path d="M0 0 C3.36720387 1.39332574 4.9859524 2.9789286 7 6 C4.625 6.1875 4.625 6.1875 2 6 C0 3 0 3 0 0 Z " fill="#131211" transform="translate(367,365)"/>
<path d="M0 0 C0.99 0 1.98 0 3 0 C2.34 1.65 1.68 3.3 1 5 C-1.64 5.33 -4.28 5.66 -7 6 C-6.67 5.01 -6.34 4.02 -6 3 C-3.03 3.495 -3.03 3.495 0 4 C0 2.68 0 1.36 0 0 Z " fill="#F82B28" transform="translate(82,294)"/>
<path d="M0 0 C4.99275057 1.27721526 7.57611908 3.17330957 11 7 C10.67 7.66 10.34 8.32 10 9 C7.95880212 7.38405168 5.95927063 5.7143618 4 4 C4 3.34 4 2.68 4 2 C2.68 1.67 1.36 1.34 0 1 C0 0.67 0 0.34 0 0 Z " fill="#ABA6CA" transform="translate(404,280)"/>
<path d="M0 0 C1.96301592 3.50538557 2.95902388 7.13351728 4 11 C1.69 10.34 -0.62 9.68 -3 9 C-1.68 8.67 -0.36 8.34 1 8 C0.67 5.36 0.34 2.72 0 0 Z " fill="#DAC0BD" transform="translate(299,232)"/>
<path d="M0 0 C0 0.99 0 1.98 0 3 C-0.66 3 -1.32 3 -2 3 C-2.33 3.66 -2.66 4.32 -3 5 C-5.31 4.67 -7.62 4.34 -10 4 C-9.360625 3.87625 -8.72125 3.7525 -8.0625 3.625 C-7.0415625 3.315625 -7.0415625 3.315625 -6 3 C-5.67 2.34 -5.34 1.68 -5 1 C-2.4375 0.375 -2.4375 0.375 0 0 Z " fill="#F5CACA" transform="translate(379,289)"/>
<path d="M0 0 C2.64 0 5.28 0 8 0 C8.33 0.99 8.66 1.98 9 3 C6.69 2.67 4.38 2.34 2 2 C1.67 2.66 1.34 3.32 1 4 C0.67 2.68 0.34 1.36 0 0 Z " fill="#F82B28" transform="translate(132,277)"/>
<path d="M0 0 C4.19115285 0.58210456 5.37542083 1.28156562 9 4 C5.7 4 2.4 4 -1 4 C-0.67 2.68 -0.34 1.36 0 0 Z " fill="#F51414" transform="translate(347,258)"/>
<path d="M0 0 C-0.99 0.33 -1.98 0.66 -3 1 C-3 1.66 -3 2.32 -3 3 C-6.37462715 2.45276317 -8.08235 1.9451 -11 0 C-9.54263913 -0.19491452 -8.08405407 -0.38069358 -6.625 -0.5625 C-5.81289062 -0.66691406 -5.00078125 -0.77132812 -4.1640625 -0.87890625 C-2 -1 -2 -1 0 0 Z " fill="#F6827F" transform="translate(153,246)"/>
<path d="M0 0 C0 0.33 0 0.66 0 1 C-6.93 2.485 -6.93 2.485 -14 4 C-14 3.34 -14 2.68 -14 2 C-9.07262981 0.02905192 -5.21979128 -0.1799928 0 0 Z " fill="#F88885" transform="translate(98,294)"/>
<path d="M0 0 C0.7425 0.0825 1.485 0.165 2.25 0.25 C1.92 0.91 1.59 1.57 1.25 2.25 C-0.07 2.25 -1.39 2.25 -2.75 2.25 C-2.75 3.24 -2.75 4.23 -2.75 5.25 C-4.07 4.92 -5.39 4.59 -6.75 4.25 C-3.42692308 0.31153846 -3.42692308 0.31153846 0 0 Z " fill="#F53735" transform="translate(37.75,281.75)"/>
<path d="M0 0 C0 3.52032428 -0.70351351 4.4385343 -3 7 C-3.66 7 -4.32 7 -5 7 C-5.33 5.68 -5.66 4.36 -6 3 C-5.195625 2.690625 -4.39125 2.38125 -3.5625 2.0625 C-1.10919595 1.23664655 -1.10919595 1.23664655 0 0 Z " fill="#F6A6A3" transform="translate(32,283)"/>
<path d="M0 0 C3.0390625 -0.29296875 3.0390625 -0.29296875 6.625 -0.1875 C7.81351562 -0.16042969 9.00203125 -0.13335937 10.2265625 -0.10546875 C11.14179688 -0.07066406 12.05703125 -0.03585937 13 0 C13 0.33 13 0.66 13 1 C12.25234375 1.06058594 11.5046875 1.12117188 10.734375 1.18359375 C9.74953125 1.26738281 8.7646875 1.35117187 7.75 1.4375 C6.28820312 1.55931641 6.28820312 1.55931641 4.796875 1.68359375 C2.43538247 1.95074584 0.28098935 2.35371968 -2 3 C-1.34 2.01 -0.68 1.02 0 0 Z " fill="#E3E2EC" transform="translate(390,278)"/>
<path d="M0 0 C3 1 6 2 9 3 C8.34 4.32 7.68 5.64 7 7 C6.67 6.01 6.34 5.02 6 4 C4.66923011 3.65657551 3.33568021 3.32380126 2 3 C1.34 2.01 0.68 1.02 0 0 Z " fill="#F5C3BF" transform="translate(366,267)"/>
<path d="M0 0 C-0.33 0.99 -0.66 1.98 -1 3 C-3.97 2.67 -6.94 2.34 -10 2 C-10 1.67 -10 1.34 -10 1 C-3.71428571 -1.42857143 -3.71428571 -1.42857143 0 0 Z " fill="#14107D" transform="translate(411,313)"/>
<path d="M0 0 C1.5 1.1875 1.5 1.1875 3 3 C3.1875 5.6875 3.1875 5.6875 3 8 C2.01 8 1.02 8 0 8 C0 5.36 0 2.72 0 0 Z " fill="#F8413D" transform="translate(24,295)"/>
<path d="M0 0 C2.64 0.33 5.28 0.66 8 1 C6 3 6 3 2.375 3.125 C1.26125 3.08375 0.1475 3.0425 -1 3 C-0.67 2.01 -0.34 1.02 0 0 Z " fill="#F68B89" transform="translate(175,270)"/>
<path d="M0 0 C2.31 0 4.62 0 7 0 C7 0.33 7 0.66 7 1 C5.35 1 3.7 1 2 1 C2 1.99 2 2.98 2 4 C1.01 4.33 0.02 4.66 -1 5 C-0.67 3.35 -0.34 1.7 0 0 Z " fill="#F7807D" transform="translate(48,308)"/>
<path d="M0 0 C0.66 0 1.32 0 2 0 C2 1.98 2 3.96 2 6 C1.01 6 0.02 6 -1 6 C-1.042721 4.33388095 -1.04063832 2.66617115 -1 1 C-0.67 0.67 -0.34 0.34 0 0 Z " fill="#F8E5E2" transform="translate(21,296)"/>
</svg>
